<svg width="422" height="672" viewBox="0 0 422 672" fill="none" xmlns="http://www.w3.org/2000/svg">
<g opacity="0.3">
<path d="M203.923 635.925C200.937 637.205 202.643 641.576 205.629 639.87C208.721 638.271 206.908 634.752 203.923 635.925Z" fill="#A19E96"/>
<path d="M205.522 636.991C206.268 639.231 209.574 638.164 208.508 635.819C207.441 633.473 204.776 634.752 205.522 636.991Z" fill="#A19E96"/>
<path d="M260.966 655.757C261.18 654.158 258.727 653.731 258.727 655.544C258.621 657.463 260.753 657.463 260.966 655.757Z" fill="#A19E96"/>
<path d="M283.037 627.609C282.504 626.009 280.265 626.862 281.012 628.355C281.758 629.954 283.571 629.101 283.037 627.609Z" fill="#A19E96"/>
<path d="M282.717 610.229C284.85 609.483 283.89 606.391 281.651 607.457C279.519 608.417 280.691 610.975 282.717 610.229Z" fill="#A19E96"/>
<path d="M299.564 619.079C301.483 619.825 302.549 616.946 300.31 616.413C298.178 615.88 297.538 618.439 299.564 619.079Z" fill="#A19E96"/>
<path d="M305.428 633.473C307.134 633.047 306.494 630.488 304.575 631.234C302.762 631.98 303.615 634.006 305.428 633.473Z" fill="#A19E96"/>
<path d="M319.716 655.864C316.304 654.798 314.704 659.809 318.436 660.449C322.275 661.195 323.128 656.93 319.716 655.864Z" fill="#A19E96"/>
<path d="M323.554 622.917C323.554 620.572 320.142 620.572 320.462 623.024C320.782 625.583 323.554 625.263 323.554 622.917Z" fill="#A19E96"/>
<path d="M336.775 615.241C337.095 617.693 340.827 617.373 340.187 614.707C339.547 612.042 336.455 612.788 336.775 615.241Z" fill="#A19E96"/>
<path d="M347.758 670.791C350.423 668.765 347.544 664.607 344.772 667.166C342 669.725 344.879 672.817 347.758 670.791Z" fill="#A19E96"/>
<path d="M354.581 671.324C356.287 669.512 353.728 666.953 352.129 669.085C350.53 671.218 352.875 673.03 354.581 671.324Z" fill="#A19E96"/>
<path d="M354.475 662.794C354.688 665.14 358.1 664.927 357.673 662.475C357.247 660.022 354.368 660.449 354.475 662.794Z" fill="#A19E96"/>
<path d="M357.886 604.578C359.166 607.884 363.964 606.071 362.258 602.766C360.445 599.354 356.607 601.38 357.886 604.578Z" fill="#A19E96"/>
<path d="M366.843 639.018C366.843 637.098 364.07 637.205 364.284 639.231C364.604 641.15 366.949 640.83 366.843 639.018Z" fill="#A19E96"/>
<path d="M378.252 670.045C380.917 667.592 377.292 663.541 374.733 666.633C372.174 669.618 375.48 672.604 378.252 670.045Z" fill="#A19E96"/>
<path d="M379.424 594.129C378.038 597.114 382.516 599.354 383.689 595.835C384.755 592.316 380.81 591.037 379.424 594.129Z" fill="#A19E96"/>
<path d="M385.928 612.042C386.995 614.921 391.366 613.321 389.767 610.336C388.167 607.35 384.756 609.163 385.928 612.042Z" fill="#A19E96"/>
<path d="M384.649 593.703C381.983 595.409 384.436 599.354 387.101 597.115C389.767 594.982 387.314 591.89 384.649 593.703Z" fill="#A19E96"/>
<path d="M375.693 538.685C378.252 536.339 374.84 532.501 372.387 535.38C370.042 538.259 373.24 541.031 375.693 538.685Z" fill="#A19E96"/>
<path d="M375.692 501.474C376.759 499.021 373.133 497.315 372.28 500.087C371.427 502.966 374.626 503.926 375.692 501.474Z" fill="#A19E96"/>
<path d="M333.15 528.556C330.804 530.368 333.363 533.78 335.602 531.541C337.841 529.409 335.389 526.85 333.15 528.556Z" fill="#A19E96"/>
<path d="M329.951 513.735C327.286 514.802 328.672 518.533 331.337 517.254C334.003 515.868 332.51 512.882 329.951 513.735Z" fill="#A19E96"/>
<path d="M358.526 486.973C358.313 484.521 354.688 484.734 355.221 487.399C355.754 490.065 358.846 489.425 358.526 486.973Z" fill="#A19E96"/>
<path d="M346.905 477.377C343.493 476.844 342.533 481.855 346.265 482.068C349.997 482.282 350.316 478.017 346.905 477.377Z" fill="#A19E96"/>
<path d="M355.754 468.74C355.967 471.193 359.486 470.873 358.953 468.314C358.42 465.755 355.541 466.395 355.754 468.74Z" fill="#A19E96"/>
<path d="M363.751 458.398C365.137 457.225 363.538 454.986 362.045 456.479C360.659 457.865 362.258 459.464 363.751 458.398Z" fill="#A19E96"/>
<path d="M307.88 490.705C306.707 489.745 305.215 491.451 306.601 492.411C307.987 493.37 309.053 491.771 307.88 490.705Z" fill="#A19E96"/>
<path d="M386.462 411.271C385.076 412.017 386.142 414.149 387.528 413.083C389.021 412.124 387.848 410.524 386.462 411.271Z" fill="#A19E96"/>
<path d="M316.837 450.508C314.704 452.427 317.477 455.626 319.609 453.28C321.635 450.934 318.969 448.589 316.837 450.508Z" fill="#A19E96"/>
<path d="M367.696 403.487C366.95 400.928 363.005 402.101 364.177 404.873C365.457 407.539 368.549 406.153 367.696 403.487Z" fill="#A19E96"/>
<path d="M352.555 404.233C351.596 406.792 355.328 408.285 356.074 405.406C356.82 402.527 353.515 401.674 352.555 404.233Z" fill="#A19E96"/>
<path d="M330.271 406.579C331.231 408.925 334.643 407.645 333.364 405.193C332.084 402.847 329.312 404.233 330.271 406.579Z" fill="#A19E96"/>
<path d="M326.22 382.696C327.073 380.883 324.407 379.603 323.768 381.629C323.021 383.655 325.367 384.508 326.22 382.696Z" fill="#A19E96"/>
<path d="M300.843 382.269C298.498 383.229 299.884 386.641 302.229 385.361C304.682 384.082 303.189 381.416 300.843 382.269Z" fill="#A19E96"/>
<path d="M273.015 392.825C276.427 392.078 275.467 386.96 271.842 388.133C268.217 389.306 269.496 393.464 273.015 392.825Z" fill="#A19E96"/>
<path d="M366.63 354.547C368.016 356.253 370.681 354.334 368.975 352.628C367.269 350.815 365.35 352.735 366.63 354.547Z" fill="#A19E96"/>
<path d="M342.319 352.521C344.772 350.389 341.68 346.764 339.334 349.323C336.988 351.881 339.974 354.654 342.319 352.521Z" fill="#A19E96"/>
<path d="M354.474 343.352C353.621 341.646 351.062 342.818 352.129 344.631C353.195 346.337 355.221 345.164 354.474 343.352Z" fill="#A19E96"/>
<path d="M328.992 350.922C331.018 352.201 332.937 349.323 330.698 348.15C328.459 346.977 327.073 349.642 328.992 350.922Z" fill="#A19E96"/>
<path d="M261.819 297.184C263.312 299.956 267.47 297.93 265.551 295.051C263.632 292.279 260.326 294.412 261.819 297.184Z" fill="#A19E96"/>
<path d="M273.654 297.184C271.202 297.824 272.268 301.555 274.827 300.489C277.386 299.316 276.107 296.437 273.654 297.184Z" fill="#A19E96"/>
<path d="M327.286 311.471C325.366 313.391 328.139 316.163 329.951 313.924C331.764 311.578 329.205 309.552 327.286 311.471Z" fill="#A19E96"/>
<path d="M271.202 286.308C271.415 288.974 275.254 288.761 274.721 285.882C274.188 283.11 270.989 283.749 271.202 286.308Z" fill="#A19E96"/>
<path d="M388.594 364.357C390.087 363.61 389.021 361.264 387.528 362.331C385.822 363.29 386.995 365.103 388.594 364.357Z" fill="#A19E96"/>
<path d="M343.812 212.419C343.066 214.231 345.731 215.404 346.371 213.378C346.904 211.352 344.665 210.606 343.812 212.419Z" fill="#A19E96"/>
<path d="M355.754 232.677C358.1 232.89 358.42 229.478 355.861 229.478C353.408 229.585 353.408 232.464 355.754 232.677Z" fill="#A19E96"/>
<path d="M256.488 664.074C252.863 664.82 255.741 668.232 257.234 667.912C258.833 667.592 259.047 663.541 256.488 664.074Z" fill="#F5F5F5"/>
<path fill-rule="evenodd" clip-rule="evenodd" d="M262.459 200.797C258.407 194.612 256.701 187.469 257.341 180.645C245.932 181.924 234.31 177.02 227.486 166.784C217.89 152.283 221.729 132.771 236.23 123.068C243.16 118.377 251.263 116.884 258.94 118.164C257.554 106.755 262.459 94.9199 272.695 88.0961C287.195 78.3934 306.814 82.3384 316.517 96.8392C319.715 101.637 321.421 106.968 321.741 112.299C332.723 111.447 343.812 116.458 350.316 126.267C360.019 140.768 356.074 160.386 341.573 169.983C334.749 174.567 326.753 176.06 319.182 174.887C322.701 187.682 317.903 201.756 306.281 209.433C291.78 219.136 272.162 215.297 262.459 200.797ZM301.909 203.036C310.439 197.278 314.278 186.829 311.612 177.02L308.413 165.291L320.355 167.21C326.326 168.17 332.297 166.784 337.308 163.479C348.184 156.228 351.063 141.514 343.812 130.532C339.121 123.495 330.804 119.443 322.274 120.083L314.384 120.723L313.958 112.833C313.638 108.568 312.252 104.623 310.013 101.104C302.762 90.2285 287.942 87.2431 277.066 94.6001C269.603 99.6114 265.551 108.248 266.724 117.204L268.003 127.653L257.661 125.841C251.69 124.881 245.612 126.16 240.601 129.572C229.726 136.823 226.74 151.643 233.99 162.519C239.002 169.876 247.532 173.821 256.488 172.861L265.871 171.795L265.018 181.285C264.591 186.722 265.977 191.947 268.963 196.425C276.213 207.301 291.034 210.286 301.909 203.036Z" fill="#F9B212"/>
<path d="M258.94 118.803C250.091 117.311 240.814 119.763 233.991 125.521C227.06 131.172 222.795 139.915 222.689 148.765C222.369 157.721 226.207 166.571 232.818 172.542C239.322 178.512 248.491 181.498 257.234 180.538L257.874 180.432V181.071C257.021 190.028 260.433 199.304 266.83 205.701C273.228 212.099 282.611 215.511 291.674 214.658C300.63 213.805 309.266 208.9 314.384 201.33C319.715 193.866 321.315 184.163 318.969 175.314L319.396 175.207C322.914 183.95 321.741 194.399 316.623 202.929C311.399 211.352 302.229 217.217 291.993 218.603C281.758 220.095 271.095 216.15 263.632 209.007C256.061 201.756 251.903 191.094 252.756 180.645L257.874 185.55C247.532 186.509 237.083 182.991 229.619 175.953C222.369 169.13 217.784 158.681 218.743 148.658C219.383 138.742 224.394 129.253 232.285 123.495C240.068 117.844 250.197 115.818 259.047 118.27L258.94 118.803Z" fill="#EF9506"/>
<path d="M319.182 174.994C327.926 176.38 337.202 173.928 343.919 168.277C350.743 162.732 355.008 154.202 355.221 145.353C355.648 136.61 352.129 127.867 345.732 121.789C339.441 115.605 330.485 112.513 321.848 113.153H321.315V112.726C320.782 104.409 316.837 96.4127 310.546 90.9749C304.255 85.5372 295.725 82.8716 287.409 83.6179C279.092 84.2577 271.202 88.6292 265.978 95.1332C260.646 101.531 258.194 110.167 259.26 118.484L258.727 118.59C256.701 110.274 258.727 100.891 263.952 93.4273C269.283 86.0703 277.706 81.059 286.982 79.7795C296.365 78.3934 306.174 81.3789 313.425 87.563C320.888 93.6405 325.58 102.703 326.326 112.406L321.422 108.141C331.551 107.288 341.893 111.34 349.037 118.377C350.636 120.083 352.555 122.429 353.622 124.135C355.221 126.48 356.181 128.506 357.14 130.852C358.953 135.543 359.806 140.661 359.273 145.566C358.526 155.482 353.408 164.651 345.625 170.409C337.841 175.954 327.819 177.979 319.182 175.527V174.994Z" fill="#F9D912"/>
<path fill-rule="evenodd" clip-rule="evenodd" d="M276.853 94.6001C280.905 91.8279 285.809 90.3352 290.714 90.4418C295.619 90.5484 300.417 92.1478 304.468 95.0266C308.414 97.9054 311.506 101.957 313.105 106.649C314.811 111.127 314.598 115.818 314.918 120.403L320.675 119.976C322.701 119.87 324.833 119.763 326.966 119.976C331.231 120.51 335.389 122.109 338.801 124.668C345.732 129.786 349.463 138.742 348.291 147.272C347.331 155.802 341.36 163.585 333.363 166.784C329.418 168.383 324.94 168.916 320.675 168.277L309.48 166.571L312.678 178.086C313.638 182.457 313.425 187.149 312.039 191.414C309.267 200.05 301.376 206.661 292.42 207.834C283.464 209.22 273.868 205.275 268.856 197.811C266.191 194.079 264.591 189.708 264.378 185.23C264.165 182.991 264.485 180.752 264.591 178.619L265.125 172.968C261.18 173.395 257.448 174.034 253.289 174.034C249.024 173.928 244.653 172.648 241.028 170.409C233.564 165.931 228.979 157.188 229.512 148.551C229.832 139.808 235.27 131.598 243.054 127.866C246.892 125.947 251.264 125.094 255.528 125.414C259.58 125.947 263.525 126.694 267.47 127.333L266.404 118.91C265.978 115.925 265.978 112.619 266.617 109.634C267.897 103.556 271.629 98.012 276.853 94.6001ZM314.918 120.403L314.384 120.51L315.024 120.936C315.024 120.794 314.989 120.616 314.918 120.403ZM309.48 166.571L309.16 165.504L308.307 166.357L309.48 166.571ZM265.125 172.968C265.409 172.968 265.693 172.933 265.978 172.861L265.231 172.222L265.125 172.968ZM267.47 127.333V127.973L268.11 127.44C267.897 127.369 267.684 127.333 267.47 127.333ZM277.28 95.2398C272.375 98.6518 268.856 103.983 267.684 109.847C267.044 112.726 267.15 115.711 267.577 118.697L268.963 127.76L269.176 129.039L267.897 128.933C263.738 128.4 259.367 127.653 255.422 127.333C251.477 127.12 247.532 128.186 244.12 130.106C237.296 133.837 233.244 141.301 233.351 148.658C233.351 156.015 237.722 162.732 243.8 165.931C246.785 167.53 250.197 168.277 253.396 168.063C254.569 168.063 257.021 167.637 258.94 167.317L265.231 166.251L272.055 165.185L271.842 172.648L271.629 179.152L271.522 182.351C271.522 183.204 271.522 183.95 271.629 184.697C271.948 187.895 273.121 190.881 275.04 193.333C278.879 198.131 285.17 200.69 291.141 199.73C297.111 198.771 302.336 194.506 304.362 188.748C305.321 185.976 305.535 182.777 304.895 179.792L304.682 179.046V178.939C304.788 179.259 304.788 179.152 304.788 179.152L304.682 178.939L304.575 178.512L304.255 176.913L303.509 173.714L301.91 167.424L299.457 156.975L309.48 158.894L321.741 161.24C324.727 161.879 327.926 161.773 330.911 160.813C336.989 158.894 342.106 153.349 343.279 146.526C344.772 139.915 342.213 132.238 336.562 127.547C333.79 125.201 330.378 123.602 326.646 122.855C324.833 122.535 323.021 122.535 320.888 122.642L314.598 122.749H312.785L312.678 121.043C312.678 118.697 312.643 116.316 312.572 113.899C312.572 111.553 312.252 109.314 311.506 107.075C310.226 102.81 307.454 98.7584 303.722 95.9862C299.99 93.214 295.406 91.6147 290.714 91.4014C286.023 91.2948 281.331 92.6809 277.28 95.2398ZM304.682 178.939C304.682 178.939 304.682 178.903 304.682 178.832V178.939ZM304.788 179.152C304.788 179.081 304.788 179.081 304.788 179.152V179.152Z" fill="#E29700"/>
<path fill-rule="evenodd" clip-rule="evenodd" d="M391.473 76.6875C391.473 90.7617 380.064 102.17 365.99 102.17C359.166 102.17 353.088 99.5048 348.504 95.2399C344.345 103.557 335.709 109.314 325.686 109.314C311.612 109.314 300.203 97.9055 300.203 83.8313C300.203 79.1398 301.483 74.7683 303.722 71.0365C295.938 66.6649 290.714 58.3483 290.714 48.8589C290.714 34.678 302.123 23.2694 316.197 23.2694C322.914 23.2694 328.992 25.8283 333.47 30.0932C336.882 19.964 346.371 12.6071 357.673 12.6071C371.747 12.6071 383.263 24.0157 383.263 38.1966C383.263 44.1675 381.13 49.7119 377.718 53.9768C385.822 58.2417 391.473 66.7716 391.473 76.6875ZM385.182 76.6875C385.182 69.4371 381.13 62.9331 374.733 59.6278L368.016 56.1093L372.707 50.0317C375.479 46.6198 376.865 42.5681 376.865 38.1966C376.865 27.5343 368.336 18.8978 357.673 18.8978C349.463 18.8978 342.106 24.229 339.547 32.1191L336.455 41.3953L329.205 34.678C325.686 31.3727 320.995 29.5601 316.197 29.5601C305.641 29.5601 297.005 38.1966 297.005 48.8589C297.005 55.6828 300.736 62.0802 306.814 65.4921L312.358 68.6908L309.16 74.2352C307.454 77.114 306.494 80.4193 306.494 83.8313C306.494 94.3869 315.131 103.023 325.686 103.023C333.043 103.023 339.547 98.9717 342.853 92.4677L346.691 84.8975L352.875 90.6551C356.394 94.0671 361.085 95.8797 365.99 95.8797C376.545 95.8797 385.182 87.2432 385.182 76.6875Z" fill="#668C2A"/>
<path d="M348.61 95.1333C353.835 100.145 361.298 102.597 368.549 101.851C375.692 101.104 382.41 97.1591 386.568 91.2948C390.833 85.4306 392.219 77.6471 390.513 70.7166C388.807 63.6795 383.902 57.602 377.505 54.2966L377.185 54.0834L377.398 53.7635C382.09 48.1125 383.902 40.329 382.41 33.0787C381.024 25.8283 376.225 19.4309 369.721 15.9123C363.324 12.3938 355.221 11.8607 348.397 14.6329C341.573 17.2984 336.029 23.1627 333.683 30.0932L333.363 29.9866C335.069 22.7362 340.613 16.2322 347.757 13.0335C355.008 9.7282 363.751 9.94145 371.001 13.6733C378.358 17.1918 383.689 24.4422 385.395 32.5455C387.208 40.5423 385.182 49.392 380.064 55.896L378.998 51.4178C386.248 55.1496 391.579 62.0801 393.392 69.9702C395.204 77.7537 393.605 86.4968 388.7 92.6809C383.902 99.0783 376.439 103.13 368.655 103.556C360.978 103.983 353.302 100.891 348.397 95.3465L348.61 95.1333Z" fill="#517016"/>
<path d="M333.363 30.1998C328.139 25.2952 320.782 22.8428 313.744 23.5892C306.601 24.3356 299.99 28.174 295.832 33.9316C291.567 39.6893 289.968 47.1529 291.567 54.19C293.06 61.1205 297.644 67.198 303.829 70.7166L304.148 70.9298L303.935 71.1431C300.523 77.0074 299.564 84.1511 301.483 90.6551C303.295 97.1591 307.774 102.81 313.744 106.009C319.609 109.314 326.859 109.954 333.363 107.928C339.761 105.902 345.305 101.211 348.397 95.2399L348.61 95.3465C346.158 101.744 340.614 107.075 333.896 109.634C327.072 112.086 319.182 111.553 312.572 108.248C305.854 105.049 300.63 98.6518 298.604 91.5081C296.365 84.1511 297.325 76.1544 301.163 69.5437L302.229 73.5954C295.192 69.6504 290.181 62.6132 288.581 54.8298C288.155 52.9105 288.048 50.6715 288.048 48.9655C288.048 46.833 288.262 44.9138 288.688 42.9946C289.541 39.1562 291.247 35.4244 293.699 32.3323C298.497 26.1482 305.961 22.3097 313.531 21.8832C321.208 21.5634 328.778 24.5488 333.576 29.9866L333.363 30.1998Z" fill="#7EB21B"/>
<path fill-rule="evenodd" clip-rule="evenodd" d="M365.99 96.1995C362.045 96.1995 358.206 95.0267 355.008 92.7876C353.408 91.7214 352.022 90.3353 350.636 89.0558L346.798 85.4306C345.411 88.0962 344.132 90.8684 342.639 93.5339C341.04 96.4128 338.694 98.7585 336.029 100.464C330.484 103.876 323.234 104.409 317.37 101.531C311.505 98.7585 307.134 92.8942 306.281 86.4968C305.854 83.2981 306.174 79.8862 307.347 76.9007C308.52 73.9153 310.226 71.463 311.719 68.7974L307.667 66.5583C306.281 65.812 304.681 64.8523 303.402 63.7861C300.736 61.547 298.711 58.5616 297.644 55.2563C295.192 48.7523 296.685 40.9688 301.376 35.8509C305.854 30.5197 313.318 27.9608 320.142 29.4535C323.554 30.0932 326.752 31.7992 329.311 34.0383L336.135 40.329L339.227 31.1595C340.613 27.7475 342.746 24.7621 345.625 22.523C351.382 18.0448 359.592 17.1918 366.096 20.3905C372.707 23.376 377.185 30.3065 377.292 37.5568C377.398 41.182 376.545 44.8072 374.733 47.8993C373.88 49.4986 372.6 50.8847 371.534 52.1642L368.549 56.0026L374.733 59.0947C376.865 60.2676 378.998 61.7603 380.597 63.6795C383.902 67.4113 385.715 72.4226 385.502 77.4339C385.288 82.4451 383.156 87.2432 379.424 90.7617C375.906 94.1737 370.894 96.1995 365.99 96.1995ZM346.798 85.4306C346.869 85.2884 346.94 85.1463 347.011 85.0041L346.478 85.1107L346.798 85.4306ZM311.719 68.904L312.145 69.1173L311.932 68.4775C311.861 68.6197 311.79 68.7619 311.719 68.904ZM336.135 40.4357L335.815 41.182L336.775 40.9688L336.135 40.4357ZM368.549 56.0026L368.122 55.7894L368.229 56.4291L368.549 56.0026ZM365.99 95.5598C370.788 95.5598 375.586 93.5339 378.998 90.2286C382.41 86.9233 384.436 82.1253 384.436 77.4339C384.542 72.6358 382.729 67.9444 379.424 64.6391C378.642 63.7861 377.789 63.0397 376.865 62.4C376.332 62.0801 375.906 61.8669 375.373 61.547C374.946 61.3338 374.306 61.0139 373.773 60.8007L367.162 57.7086L365.243 56.749L366.523 55.043L369.721 50.6715L371.214 48.539C371.641 47.8993 372.032 47.2595 372.387 46.6198C373.773 43.8476 374.413 40.7555 374.2 37.6635C373.773 31.586 369.615 26.2548 364.284 24.1223C359.059 21.8833 352.875 23.1627 348.823 26.5747C346.691 28.2806 345.092 30.733 344.345 32.9721C343.386 36.1707 342.319 39.6893 341.253 42.9946L338.801 50.3516L332.937 45.1271L325.473 38.4098C323.66 36.7039 321.315 35.6376 318.969 35.2111C314.171 34.0383 308.84 35.7442 305.534 39.5827C302.123 43.1012 300.736 48.6456 302.336 53.6569C303.082 56.1093 304.468 58.455 306.387 60.2676C306.921 60.8007 307.347 61.1205 307.774 61.547L308.733 62.1868L309.799 62.8265L314.064 65.4921L317.263 67.5179L315.45 70.5034C313.851 73.1689 311.719 75.9411 310.759 78.1802C309.693 80.6326 309.266 83.2981 309.479 86.0703C309.799 91.5081 313.211 96.7326 318.329 99.5048C323.34 102.17 329.951 102.277 335.282 99.2916C337.841 97.7989 340.08 95.5598 341.68 93.0008C343.172 90.3353 344.665 87.4564 346.158 84.6842L346.584 84.0445L347.011 84.471L351.169 88.416C352.555 89.8021 353.835 91.1882 355.434 92.2545C358.526 94.3869 362.151 95.5598 365.99 95.5598Z" fill="#516917"/>
<path d="M381.557 229.158C388.7 229.158 394.458 234.916 394.458 242.06C394.458 249.203 388.7 254.961 381.557 254.961C374.52 254.961 368.655 249.203 368.655 242.06C368.655 237.795 370.788 234.063 373.88 231.717C378.678 231.291 380.597 241.42 384.755 240.354C384.755 240.354 387.208 234.383 381.557 229.158Z" fill="#87A836"/>
<g style="mix-blend-mode:multiply">
<path d="M378.465 246.325C384.969 244.192 391.579 237.688 387.208 231.184C386.781 230.758 386.355 230.331 385.822 229.905C384.542 229.478 383.049 229.158 381.557 229.158C387.208 234.383 384.755 240.354 384.755 240.354C380.597 241.42 378.678 231.291 373.88 231.717C370.788 234.063 368.655 237.795 368.655 242.06C368.655 243.766 369.082 245.365 369.615 246.858C372.6 247.391 375.479 247.391 378.465 246.325Z" fill="#E0EECA"/>
</g>
<g style="mix-blend-mode:screen">
<path d="M378.465 234.703C377.185 232.997 375.692 231.504 373.88 231.717C370.788 234.063 368.655 237.795 368.655 242.06C368.655 245.258 369.935 248.244 371.854 250.483C376.652 245.792 379.744 240.567 378.465 234.703Z" fill="#362605"/>
</g>
<path d="M381.557 229.158C387.208 234.383 384.756 240.354 384.756 240.354C380.597 241.42 378.678 231.291 373.88 231.717C376.013 230.118 378.678 229.158 381.557 229.158Z" fill="#D2DB58"/>
<path fill-rule="evenodd" clip-rule="evenodd" d="M394.885 242.06C394.885 245.472 393.499 248.884 391.046 251.336C388.594 253.788 385.182 255.281 381.77 255.281C378.251 255.281 374.839 253.895 372.387 251.442C369.828 248.99 368.442 245.578 368.442 242.06C368.442 238.541 369.828 235.129 372.387 232.677C374.839 230.224 378.251 228.838 381.77 228.838C385.182 228.838 388.594 230.224 391.046 232.783C393.499 235.129 394.885 238.648 394.885 242.06ZM394.351 242.06C394.351 240.354 393.925 238.754 393.285 237.262C392.645 235.769 391.473 234.489 390.3 233.423C387.741 231.397 384.542 230.758 381.77 231.184C378.891 231.611 376.545 233.317 375.053 235.342C374.2 236.302 373.667 237.475 373.347 238.541C372.92 239.678 372.743 240.851 372.814 242.06C372.707 243.232 372.92 244.405 373.347 245.472C373.773 246.644 374.2 247.817 375.053 248.777C376.545 250.803 378.891 252.402 381.77 252.829C384.542 253.362 387.741 252.615 390.3 250.589C391.473 249.63 392.645 248.35 393.285 246.858C393.925 245.365 394.351 243.766 394.351 242.06Z" fill="#B0C236"/>
<path d="M373.987 231.611C375.266 231.397 376.546 232.144 377.399 232.997C378.252 233.85 378.998 234.916 379.638 235.876C380.384 236.835 381.024 237.901 381.877 238.754C382.623 239.714 383.689 240.46 384.755 240.14L384.649 240.247C385.395 238.434 385.395 236.302 384.862 234.276C384.329 232.357 383.156 230.651 381.664 229.265L381.77 229.052C382.836 229.478 383.689 230.118 384.542 230.971C385.289 231.824 386.035 232.783 386.462 233.85C386.888 234.916 387.208 236.195 387.208 237.368C387.208 238.648 387.101 239.714 386.675 241.1L386.355 241.953L385.289 242.166C384.329 242.486 382.943 242.273 382.197 241.846C381.344 241.313 380.81 240.78 380.277 240.14C379.318 239.074 378.785 238.008 378.145 236.942C377.612 235.876 377.079 234.809 376.546 233.85C375.906 232.997 375.266 232.144 373.987 231.824V231.611Z" fill="#768E2D"/>
<path d="M373.987 231.611C375.266 230.971 376.972 231.611 378.038 232.357C379.211 233.103 380.064 234.17 380.81 235.023C381.663 235.982 382.41 236.942 383.05 237.688C383.476 238.008 383.796 238.221 384.009 238.328C384.222 238.434 384.222 238.434 384.329 238.434L383.05 239.607C383.263 239.074 383.476 238.115 383.583 237.262C383.654 236.409 383.654 235.556 383.583 234.703C383.476 233.85 383.263 232.89 382.943 232.037C382.623 231.077 382.197 230.224 381.664 229.265L381.77 229.052C383.369 230.438 384.542 232.25 385.182 234.276C385.715 236.195 385.715 238.434 385.075 240.46H384.969L384.862 240.567C384.222 240.674 383.583 240.567 382.943 240.247C382.41 239.927 381.983 239.501 381.557 239.074C380.704 238.115 380.064 237.048 379.424 236.089C378.678 235.023 378.038 234.063 377.185 233.21C376.332 232.357 375.266 231.717 373.987 231.824V231.611Z" fill="#D8E561"/>
<g style="mix-blend-mode:screen">
<path d="M374.306 236.302C370.575 235.342 368.442 240.034 371.534 241.74C374.52 243.552 375.692 236.622 374.306 236.302Z" fill="white"/>
</g>
<g style="mix-blend-mode:screen">
<path d="M380.171 234.703C381.237 233.53 378.785 230.438 377.399 230.971C375.906 231.504 379.851 235.129 380.171 234.703Z" fill="white"/>
</g>
<path d="M322.807 322.24C312.785 319.681 313.958 316.269 321.634 317.869C322.487 318.864 322.914 319.823 322.914 320.747C322.914 321.316 322.878 321.814 322.807 322.24Z" fill="#FFE357"/>
<path d="M303.402 328.104C315.237 323.306 320.248 325.439 322.807 322.24C321.421 327.145 311.719 325.012 305.001 331.836C297.644 339.406 286.449 335.461 284.956 324.479C283.89 316.483 284.743 309.765 289.754 307.42C284.636 317.762 291.46 332.796 303.402 328.104Z" fill="#F9B212"/>
<path d="M297.324 306.78C307.027 308.379 318.116 313.177 321.634 317.869C313.958 316.269 312.785 319.681 322.807 322.24C320.248 325.439 315.237 323.306 303.402 328.104C291.46 332.796 284.636 317.762 289.754 307.42C291.673 306.46 294.126 306.247 297.324 306.78Z" fill="#FCCF10"/>
<g style="mix-blend-mode:screen">
<path d="M316.303 319.681C314.278 317.975 316.517 316.802 321.635 317.869C318.116 313.177 307.027 308.379 297.325 306.78C296.543 306.638 295.796 306.531 295.085 306.46C299.99 316.376 307.667 319.468 316.303 319.681Z" fill="#FCCF10"/>
</g>
<path d="M321.741 318.082C320.355 318.615 319.182 318.828 318.116 319.148C317.583 319.361 317.05 319.468 317.05 319.575C317.05 319.646 317.121 319.61 317.263 319.468C317.369 319.361 317.583 319.041 317.583 318.722C317.583 318.082 317.369 318.082 317.476 318.082C317.583 318.295 318.009 318.615 318.436 318.828C318.862 319.148 319.289 319.468 319.822 319.788C320.781 320.428 321.848 321.174 322.914 322.24L322.807 322.453C321.599 322.169 320.39 321.814 319.182 321.387C318.009 320.961 316.836 320.534 315.877 319.575C315.663 319.361 315.45 319.041 315.45 318.615C315.45 318.189 315.877 317.869 316.197 317.762C316.836 317.442 317.369 317.442 318.009 317.442C319.289 317.442 320.568 317.655 321.848 317.869L321.741 318.082Z" fill="#D49912"/>
<path d="M322.914 320.854C322.381 319.255 321.101 318.188 319.715 317.229C318.329 316.269 316.837 315.523 315.344 314.777C312.287 313.355 309.16 312.111 305.961 311.045C302.762 309.979 299.457 309.019 296.258 308.273C294.659 307.953 293.06 307.739 291.46 307.953C289.861 308.059 288.368 308.806 287.089 309.872L286.875 309.765C287.942 308.379 289.434 307.313 291.247 306.886C292.953 306.353 294.659 306.353 296.472 306.567C299.884 307.1 303.295 307.953 306.601 309.019C309.906 310.192 313.211 311.578 316.197 313.284C317.69 314.243 319.182 315.203 320.462 316.376C321.741 317.549 322.914 319.041 323.127 320.854H322.914Z" fill="#FCE83B"/>
<path d="M287.089 309.872C285.809 312.324 285.596 314.99 285.702 317.549C285.809 320.108 286.129 322.773 286.769 325.332C287.408 327.571 288.475 329.811 290.181 331.41C291.78 332.903 293.912 333.862 296.151 333.862C298.391 334.075 300.63 333.329 302.442 331.836C303.402 331.197 304.255 330.237 305.534 329.277C306.707 328.318 307.987 327.678 309.373 327.145C312.038 325.972 314.811 325.546 317.369 325.012C318.756 324.799 320.035 324.479 321.101 323.946C322.061 323.307 322.807 322.24 322.914 320.854H323.127C323.234 322.24 322.701 323.733 321.528 324.479C320.355 325.332 319.075 325.759 317.796 326.079C315.13 326.825 312.571 327.465 310.119 328.638C308.946 329.171 307.773 329.917 306.707 330.77C305.641 331.516 304.788 332.583 303.722 333.436C301.589 335.142 298.817 336.208 296.045 336.101C293.273 335.995 290.607 334.715 288.688 332.796C286.769 330.877 285.596 328.211 285.063 325.546C284.636 322.88 284.423 320.214 284.53 317.442C284.743 314.777 285.276 312.004 286.875 309.765L287.089 309.872Z" fill="#FAC112"/>
<g style="mix-blend-mode:color-dodge">
<path d="M305.108 314.883C305.961 310.405 294.766 307.313 292.74 311.898C290.82 316.483 303.828 321.281 305.108 314.883Z" fill="white"/>
</g>
<path d="M380.064 654.904C374.306 663.434 371.534 661.089 375.692 654.371C376.829 654.016 377.86 653.98 378.784 654.265C379.282 654.407 379.708 654.62 380.064 654.904Z" fill="#FFE357"/>
<path d="M375.905 654.478C375.905 655.864 375.692 657.143 375.585 658.21C375.585 658.743 375.585 659.276 375.692 659.382C375.692 659.382 375.692 659.311 375.692 659.169C375.585 659.063 375.372 658.743 375.052 658.636C374.413 658.316 374.306 658.529 374.413 658.423C374.626 658.423 375.052 658.103 375.479 657.783C375.905 657.57 376.332 657.143 376.865 656.824C377.825 656.184 378.784 655.437 380.17 654.798L380.277 654.904C379.637 655.971 378.891 657.037 378.144 657.996C377.291 658.956 376.439 659.809 375.266 660.449C374.946 660.555 374.519 660.662 374.199 660.555C373.773 660.342 373.666 659.916 373.666 659.596C373.56 658.849 373.773 658.316 373.986 657.676C374.413 656.504 375.052 655.331 375.692 654.265L375.905 654.478Z" fill="#D49912"/>
<path d="M342.852 565.447C338.268 578.455 343.812 592.636 364.07 599.14C384.435 605.538 402.668 595.195 405.44 583.68C406.72 578.242 404.054 562.035 381.023 552.866C357.886 543.803 347.437 552.439 342.852 565.447Z" fill="#832732"/>
<path style="mix-blend-mode:screen" d="M342.852 565.447C338.268 578.455 343.812 592.636 364.07 599.14C384.435 605.538 402.668 595.195 405.44 583.68C406.72 578.242 404.054 562.035 381.023 552.866C357.886 543.803 347.437 552.439 342.852 565.447Z" fill="url(#paint0_linear_29_59299)"/>
<path style="mix-blend-mode:screen" d="M342.532 566.3C338.481 579.095 344.238 592.743 364.07 599.14C384.009 605.431 401.921 595.515 405.227 584.32C384.435 585.173 358.206 580.908 342.532 566.3Z" fill="url(#paint1_linear_29_59299)"/>
<path style="mix-blend-mode:multiply" d="M342.852 565.447C338.268 578.455 343.812 592.636 364.07 599.14C384.435 605.538 402.668 595.195 405.44 583.68C406.72 578.242 404.054 562.035 381.023 552.866C357.886 543.803 347.437 552.439 342.852 565.447Z" fill="url(#paint2_radial_29_59299)"/>
<path style="mix-blend-mode:screen" d="M363.75 570.139C353.621 573.444 343.812 571.632 342.106 566.087C340.293 560.543 347.01 553.292 357.246 549.987C367.375 546.682 377.078 548.601 378.891 554.145C380.703 559.69 373.879 566.833 363.75 570.139Z" fill="url(#paint3_radial_29_59299)"/>
<path style="mix-blend-mode:screen" d="M386.994 575.47C382.836 569.499 382.196 562.782 385.395 560.543C388.7 558.304 394.671 561.289 398.829 567.26C402.988 573.231 403.734 579.948 400.429 582.187C397.124 584.426 391.153 581.441 386.994 575.47Z" fill="url(#paint4_radial_29_59299)"/>
<path d="M214.585 236.942L215.972 238.968L216.185 241.633L216.078 241.74L215.972 241.42L213.519 239.927L210.96 240.034L208.401 239.927L205.736 240.141L203.283 240.567L200.724 241.207L198.699 243.019L196.353 243.979L194.221 245.472L193.261 247.604L191.662 245.685L191.555 242.913L192.941 240.46L195.18 239.181L197.419 237.795L199.658 236.622L202.111 235.662L204.563 234.916L207.229 235.556L209.787 235.129L212.346 235.343L214.585 236.942Z" fill="#AD8846"/>
<path d="M207.762 256.241C220.343 252.829 228.873 244.299 226.954 237.262L228.34 242.166C230.259 249.204 221.623 257.733 209.041 261.145C196.566 264.664 184.731 261.678 182.812 254.641L181.532 249.737C183.451 256.774 195.18 259.759 207.762 256.241Z" fill="#897000"/>
<path fill-rule="evenodd" clip-rule="evenodd" d="M200.724 230.758C213.306 227.239 225.035 230.225 226.954 237.262C228.873 244.299 220.343 252.829 207.762 256.241C195.18 259.759 183.451 256.774 181.532 249.737C179.506 242.7 188.143 234.17 200.724 230.758ZM216.078 241.74L216.185 241.633L215.972 238.968L214.585 236.942L212.346 235.343L209.787 235.129L207.228 235.556L204.563 234.916L202.111 235.662L199.658 236.622L197.419 237.795L195.18 239.181L192.941 240.46L191.555 242.913L191.661 245.685L193.261 247.604L195.5 248.884L198.059 249.417L200.618 249.204L203.07 248.99L205.736 249.204L207.975 247.498L210.32 246.645L212.346 245.152L214.159 243.446L216.078 241.74Z" fill="#B69F4A"/>
<path style="mix-blend-mode:screen" fill-rule="evenodd" clip-rule="evenodd" d="M200.724 230.758C213.306 227.239 225.035 230.225 226.954 237.262C228.873 244.299 220.343 252.829 207.762 256.241C195.18 259.759 183.451 256.774 181.532 249.737C179.506 242.7 188.143 234.17 200.724 230.758ZM216.078 241.74L216.185 241.633L215.972 238.968L214.585 236.942L212.346 235.343L209.787 235.129L207.228 235.556L204.563 234.916L202.111 235.662L199.658 236.622L197.419 237.795L195.18 239.181L192.941 240.46L191.555 242.913L191.661 245.685L193.261 247.604L195.5 248.884L198.059 249.417L200.618 249.204L203.07 248.99L205.736 249.204L207.975 247.498L210.32 246.645L212.346 245.152L214.159 243.446L216.078 241.74Z" fill="url(#paint5_radial_29_59299)"/>
<path d="M462.91 439.526C462.91 439.526 442.012 471.726 326.113 486.866C326.113 486.866 324.94 486.866 324.3 485.907C324.3 485.907 394.458 450.828 462.91 439.526Z" fill="#496913"/>
<path style="mix-blend-mode:screen" d="M462.91 439.526C462.91 439.526 442.012 471.726 326.113 486.866C326.113 486.866 324.94 486.866 324.3 485.907C324.3 485.907 394.458 450.828 462.91 439.526Z" fill="url(#paint6_linear_29_59299)"/>
<path d="M428.151 436.647C439.347 436.114 450.968 436.86 462.91 439.526C394.458 450.828 324.3 485.907 324.3 485.907C323.98 485.48 323.767 485.054 323.767 484.414C328.139 479.19 335.389 472.579 344.879 465.968C353.728 459.784 364.71 453.493 377.185 448.375C392.219 442.085 409.599 437.5 428.151 436.647Z" fill="#829E44"/>
<path style="mix-blend-mode:screen" d="M429.857 437.82C439.453 437.393 449.582 438.033 459.924 440.166C400.642 449.762 339.867 479.403 339.867 479.403C339.654 479.19 339.44 478.763 339.44 478.23C343.172 473.858 349.463 468.314 357.673 462.663C365.457 457.438 374.839 452.107 385.608 447.736C398.723 442.511 413.65 438.566 429.857 437.82Z" fill="url(#paint7_linear_29_59299)"/>
<path d="M0.48584 79.0332C0.48584 79.0332 28.9542 83.618 74.4823 158.681C74.4823 158.681 74.8021 159.427 74.269 160.173C74.269 160.173 28.9542 122.642 0.48584 79.0332Z" fill="#496913"/>
<path style="mix-blend-mode:screen" d="M0.48584 79.0332C0.48584 79.0332 28.9542 83.618 74.4823 158.681C74.4823 158.681 74.8021 159.427 74.269 160.173C74.269 160.173 28.9542 122.642 0.48584 79.0332Z" fill="url(#paint8_linear_29_59299)"/>
<path d="M9.01568 103.77C5.28388 96.1995 2.29843 87.9895 0.48584 79.0332C28.9542 122.642 74.269 160.173 74.269 160.173C74.1624 160.493 73.8425 160.813 73.416 161.026C68.618 159.534 61.9008 156.655 54.4371 152.07C47.4 147.912 39.8298 142.261 32.5794 135.224C23.6231 126.8 15.3064 116.245 9.01568 103.77Z" fill="#829E44"/>
<path style="mix-blend-mode:screen" d="M9.33568 102.277C6.13699 95.7731 3.57804 88.6293 1.87207 80.8458C26.3954 118.697 65.2062 151.43 65.2062 151.43C65.064 151.715 64.8152 151.963 64.4598 152.177C60.3015 150.897 54.6505 148.232 48.2531 144.287C42.2822 140.555 35.7782 135.65 29.5941 129.573C22.0238 122.216 14.7735 113.153 9.33568 102.277Z" fill="url(#paint9_linear_29_59299)"/>
<g style="mix-blend-mode:screen" opacity="0.4">
<g opacity="0.9">
<path d="M230.258 604.152C230.258 604.152 230.045 604.898 229.725 606.178C229.512 606.711 229.405 607.564 229.086 608.417C228.872 609.376 228.766 610.336 228.553 611.509C227.7 615.987 227.06 622.278 227.06 628.675C227.166 630.275 227.166 631.874 227.273 633.473C227.273 635.073 227.486 636.672 227.593 638.165C227.806 639.764 227.913 641.257 228.126 642.643C228.339 644.029 228.553 645.415 228.766 646.588C228.979 647.867 229.228 648.969 229.512 649.893C229.725 650.959 229.939 651.848 230.152 652.559C230.472 653.945 230.685 654.798 230.685 654.798C230.685 654.798 230.472 653.945 229.939 652.559C229.654 651.848 229.405 650.995 229.192 650C228.837 649.005 228.517 647.867 228.233 646.588C228.019 645.415 227.7 644.029 227.486 642.643C227.166 641.15 227.06 639.657 226.74 638.165C226.633 636.565 226.527 634.966 226.42 633.367C226.313 631.767 226.207 630.061 226.207 628.462C226.207 626.863 226.313 625.263 226.313 623.664C226.42 622.171 226.527 620.572 226.74 619.079C227.06 616.094 227.486 613.535 228.019 611.189C228.339 610.123 228.552 609.163 228.872 608.204C229.086 607.351 229.299 606.604 229.512 605.964C230.045 604.792 230.258 604.152 230.258 604.152Z" fill="url(#paint10_linear_29_59299)"/>
<path d="M241.667 629.955C241.667 629.955 241.454 630.488 241.134 631.341C240.708 632.3 240.388 633.58 239.855 635.286C239.641 636.032 239.535 636.992 239.322 637.951C239.002 638.911 238.895 639.977 238.682 641.044C238.362 643.069 238.042 645.415 237.935 647.867C237.829 650.213 237.935 652.665 238.042 654.905C238.149 656.077 238.149 657.144 238.255 658.21C238.362 659.276 238.469 660.342 238.682 661.195C238.895 663.008 239.215 664.607 239.428 665.673C239.641 666.74 239.855 667.379 239.855 667.379C239.855 667.379 239.641 666.74 239.322 665.673C239.002 664.607 238.469 663.008 238.149 661.195C237.829 659.276 237.402 657.144 237.189 654.798C237.082 652.452 236.976 650 237.083 647.548C237.189 645.095 237.509 642.749 237.935 640.617C238.362 638.485 238.895 636.565 239.428 634.966C239.961 633.367 240.494 632.087 240.921 631.234C241.347 630.381 241.667 629.955 241.667 629.955Z" fill="url(#paint11_linear_29_59299)"/>
<path d="M248.171 641.79C248.171 641.79 248.598 641.683 249.558 641.577C250.411 641.577 251.797 641.577 253.396 641.897C254.249 642.003 254.995 642.216 255.955 642.536C256.915 642.749 257.874 643.069 258.834 643.389C260.86 644.242 262.992 645.202 265.018 646.481C266.084 647.014 267.044 647.761 268.003 648.4C269.07 649.147 269.923 649.893 270.882 650.533C271.735 651.279 272.588 652.026 273.441 652.665C274.294 653.412 274.934 654.158 275.68 654.798C276.32 655.438 276.96 656.077 277.493 656.61C277.99 657.179 278.417 657.677 278.772 658.103C279.519 658.956 279.945 659.489 279.945 659.489C279.945 659.489 279.519 658.956 278.666 658.316C278.346 657.89 277.813 657.463 277.28 656.93C276.746 656.397 276.107 655.864 275.36 655.224C274.721 654.585 273.974 653.945 273.121 653.305C272.268 652.665 271.415 651.919 270.562 651.279C269.603 650.64 268.75 649.893 267.683 649.253C266.724 648.614 265.764 647.974 264.805 647.334C262.779 646.161 260.646 645.095 258.727 644.242C257.767 643.922 256.808 643.496 255.955 643.176C255.031 642.892 254.178 642.643 253.396 642.43C251.797 642.11 250.517 641.896 249.558 641.79C248.705 641.79 248.171 641.79 248.171 641.79Z" fill="url(#paint12_linear_29_59299)"/>
<path d="M239.428 624.304C239.428 624.304 239.535 624.197 239.748 624.197C239.961 624.09 240.281 624.09 240.708 624.09C241.667 624.197 242.84 624.197 244.333 624.41C245.826 624.624 247.638 624.837 249.557 625.263C251.37 625.69 253.396 626.116 255.422 626.649C257.448 627.183 259.473 627.822 261.393 628.569C263.205 629.208 265.018 629.955 266.51 630.808C267.257 631.128 267.897 631.447 268.43 631.874C269.069 632.194 269.602 632.514 270.029 632.834C270.775 633.473 271.308 633.793 271.308 633.793C271.308 633.793 270.775 633.473 269.922 633.047C269.496 632.727 268.963 632.514 268.43 632.194C267.79 631.874 267.15 631.661 266.404 631.341C265.657 630.914 264.805 630.701 263.952 630.381C263.099 630.061 262.246 629.741 261.286 629.422C259.367 628.782 257.448 628.249 255.422 627.716C251.37 626.543 247.425 625.583 244.439 624.943C242.84 624.73 241.667 624.41 240.708 624.41C239.855 624.197 239.428 624.304 239.428 624.304Z" fill="url(#paint13_linear_29_59299)"/>
<path d="M232.711 608.097C232.711 608.097 232.782 608.026 232.924 607.884C233.137 607.777 233.351 607.564 233.777 607.457C234.097 607.351 234.63 607.351 235.163 607.244C235.696 607.244 236.336 607.244 237.083 607.244C238.469 607.351 240.175 607.564 241.881 607.99C243.693 608.417 245.612 608.843 247.532 609.483C249.451 610.123 251.263 610.762 253.076 611.509C254.782 612.255 256.488 613.108 257.767 613.748C260.54 615.241 262.352 616.413 262.352 616.413C262.352 616.413 261.926 616.307 261.073 615.88C260.326 615.454 259.047 614.921 257.661 614.281C256.275 613.748 254.675 613.002 252.969 612.362C251.263 611.722 249.344 611.082 247.425 610.549C245.612 609.909 243.693 609.27 241.987 608.843C240.175 608.417 238.575 608.097 237.189 607.884C236.443 607.777 235.803 607.67 235.27 607.67C234.737 607.67 234.204 607.564 233.884 607.67C233.457 607.741 233.137 607.813 232.924 607.884C232.711 607.99 232.711 608.097 232.711 608.097Z" fill="url(#paint14_linear_29_59299)"/>
<path d="M226.74 594.876C226.74 594.876 226.953 594.556 227.38 594.556C227.806 594.449 228.446 594.343 229.299 594.343C230.792 594.236 232.924 594.449 235.057 594.769C237.189 595.089 239.321 595.622 240.921 596.049C242.52 596.475 243.586 596.902 243.586 596.902C243.586 596.902 242.52 596.795 240.921 596.582C239.428 596.368 237.296 596.155 235.163 595.835C233.031 595.515 230.898 595.196 229.299 594.876C228.553 594.876 227.913 594.662 227.486 594.769C227.202 594.769 227.024 594.769 226.953 594.769C226.847 594.769 226.74 594.876 226.74 594.876Z" fill="url(#paint15_linear_29_59299)"/>
<path d="M224.821 591.144C224.821 591.144 224.394 592.53 223.541 594.449C222.795 596.368 221.835 599.034 221.089 601.913C220.449 604.685 219.916 607.671 219.81 609.91C219.81 611.082 219.81 612.042 219.916 612.788C219.987 613.499 220.023 613.855 220.023 613.855C220.023 613.855 219.952 613.499 219.81 612.788C219.596 612.042 219.49 611.082 219.383 609.91C219.276 608.63 219.383 607.244 219.49 605.858C219.596 604.365 219.916 602.872 220.236 601.38C220.982 598.501 221.942 595.835 223.008 594.023C223.435 593.063 223.968 592.423 224.288 591.89C224.608 591.357 224.821 591.144 224.821 591.144Z" fill="url(#paint16_linear_29_59299)"/>
</g>
</g>
<g style="mix-blend-mode:screen" opacity="0.7">
<path opacity="0.2" d="M261.819 622.598C251.797 601.593 236.123 588.158 226.1 592.85C216.078 597.648 215.971 618.653 225.887 639.657C235.91 660.662 252.116 673.777 262.139 669.085C272.162 664.394 271.735 643.709 261.819 622.598Z" fill="#68A81E"/>
<path opacity="0.3" d="M259.153 623.664C249.984 604.259 236.016 591.464 227.38 595.622C218.636 599.674 218.85 618.973 228.126 638.485C237.296 657.997 252.01 670.258 260.753 666.207C269.389 662.048 268.429 643.176 259.153 623.664Z" fill="#75B42B"/>
<path opacity="0.4" d="M256.488 624.73C248.065 606.817 236.016 594.769 228.553 598.288C221.196 601.806 221.835 619.399 230.259 637.312C238.788 655.224 251.903 666.74 259.26 663.221C266.724 659.703 265.018 642.643 256.488 624.73Z" fill="#82C138"/>
<path opacity="0.6" d="M253.929 625.796C246.145 609.483 235.91 598.074 229.832 600.953C223.648 603.939 224.714 619.825 232.498 636.139C240.175 652.452 251.69 663.114 257.874 660.236C263.951 657.357 261.606 642.216 253.929 625.796Z" fill="#90CD46"/>
<path opacity="0.7" d="M251.263 626.863C244.226 612.042 235.803 601.38 231.005 603.725C226.207 605.965 227.7 620.145 234.63 634.966C241.667 649.787 251.583 659.596 256.381 657.357C261.179 655.011 258.301 641.683 251.263 626.863Z" fill="#9DDA53"/>
<path opacity="0.8" d="M248.598 627.929C242.414 614.708 235.803 604.685 232.284 606.391C228.659 608.097 230.578 620.572 236.869 633.793C243.053 647.014 251.37 656.077 254.995 654.371C258.514 652.665 254.888 641.15 248.598 627.929Z" fill="#AAE660"/>
<path opacity="0.9" d="M245.932 628.995C240.494 617.373 235.696 607.99 233.457 609.057C231.218 610.123 233.457 620.892 239.002 632.62C244.546 644.349 251.263 652.452 253.502 651.386C255.742 650.32 251.477 640.724 245.932 628.995Z" fill="#B7F36E"/>
<path d="M243.373 630.061C238.575 619.932 235.696 611.296 234.737 611.722C233.777 612.255 236.443 621.318 241.241 631.447C246.039 641.577 251.05 648.934 252.116 648.507C253.076 647.974 248.171 640.19 243.373 630.061Z" fill="#C4FF7B"/>
</g>
<path d="M153.703 45.98C150.185 47.3661 147.199 49.1786 143.574 50.0316C142.081 51.9508 140.909 54.1899 139.949 56.7489C137.39 63.6794 137.603 71.5695 136.857 78.8199C136.004 88.4159 135.151 98.012 134.405 107.715C132.699 126.587 129.82 145.353 125.448 163.905C123.529 171.795 121.29 179.472 119.797 187.362C118.091 192.48 116.705 197.705 115.426 202.716C114.466 206.234 111.907 213.911 114.573 217.11C114.999 217.643 115.852 217.75 116.492 217.43C116.634 217.43 116.776 217.394 116.918 217.323C117.771 217.323 118.624 216.897 118.944 216.044C120.65 215.191 122.036 213.378 123.103 212.099C126.621 208.154 129.713 203.675 132.592 199.197C134.298 196.638 136.324 193.546 138.03 190.134C138.883 189.068 139.842 187.895 140.589 186.829C149.865 174.141 153.064 155.695 156.795 140.768C159.035 132.131 160.527 123.388 162.766 114.752C165.112 106.009 167.671 97.5855 169.057 88.7358C170.55 79.0331 173.855 65.1721 170.55 54.6164C165.965 50.2449 159.994 43.421 153.703 45.98Z" fill="#FF1C07"/>
<g style="mix-blend-mode:screen" opacity="0.5">
<path d="M151.464 55.8959C151.038 54.723 149.971 54.5098 148.905 54.723C148.799 54.723 148.799 54.8297 148.799 54.8297C148.159 54.9363 147.626 55.2562 147.306 55.8959C147.093 56.5356 147.093 57.282 147.412 57.9217C147.839 58.8813 148.905 59.5211 150.078 59.0946C150.078 58.988 150.078 58.988 150.185 58.988C150.185 59.0946 150.185 59.2012 150.185 59.2012C150.291 59.3078 150.398 59.5211 150.398 59.6277C151.464 61.3337 154.556 60.1608 154.13 58.135C154.13 57.9928 154.094 57.8507 154.023 57.7085C153.81 56.5356 152.744 55.576 151.464 55.8959Z" fill="url(#paint17_linear_29_59299)"/>
<path opacity="0.8" d="M148.905 64.1059C146.346 65.1721 147.839 69.1172 150.398 68.1576C152.957 67.198 151.464 63.2529 148.905 64.1059Z" fill="url(#paint18_linear_29_59299)"/>
<path opacity="0.9" d="M148.266 69.7569C147.306 70.1834 146.666 71.2496 146.986 72.3159C146.773 72.849 146.666 73.4887 146.773 73.9152C146.879 74.2351 146.986 74.555 147.093 74.8748C147.022 74.9459 146.95 75.017 146.879 75.0881C146.453 76.0477 146.453 77.0073 146.773 77.8603C146.24 78.5 145.92 79.353 146.346 80.206C146.417 80.3481 146.453 80.4548 146.453 80.5259C146.879 81.2722 147.413 81.8053 148.159 81.912C147.946 81.912 147.732 81.912 147.413 82.0186C146.346 82.4451 145.92 83.6179 146.24 84.6842C146.026 84.151 146.24 84.3643 146.133 84.6842C146.204 84.7552 146.204 84.8619 146.133 85.004C146.24 85.5371 146.346 85.9636 146.56 86.3901V86.4967C145.813 86.8166 145.493 87.6696 145.493 88.5226C145.387 89.0557 145.493 89.5888 145.707 90.1219C145.351 90.4773 145.102 90.9038 144.96 91.4014C144.96 91.9345 145.067 92.4676 145.173 92.7875C145.245 93.0007 145.351 93.214 145.493 93.4272C145.707 93.6405 146.026 93.8537 146.346 94.067C145.493 94.4935 145.173 95.5597 145.387 96.4127C145.387 96.3061 145.493 96.3061 145.493 96.5193C145.493 96.6615 145.493 96.7326 145.493 96.7326C145.493 96.7326 145.493 96.8392 145.493 96.9458C145.387 97.4789 145.387 98.012 145.387 98.6518C145.387 98.7939 145.387 98.9361 145.387 99.0783C144.96 100.571 146.346 102.49 148.159 101.744C149.545 101.211 149.758 99.9312 149.332 98.9716C149.403 98.9006 149.438 98.8295 149.438 98.7584V98.865C149.509 98.5096 149.545 98.1187 149.545 97.6922C149.545 97.4789 149.438 97.159 149.438 96.8392C149.438 96.1994 149.332 95.6663 149.119 95.0266C148.905 94.6001 148.585 94.2802 148.159 94.067C148.585 93.8537 148.905 93.5339 149.119 93.1074C149.225 93.0007 149.332 92.8941 149.332 92.8941C149.758 92.2544 149.865 91.508 149.652 90.7617C149.545 90.5484 149.438 90.4418 149.438 90.3352C149.972 89.4822 150.078 88.5226 149.545 87.563V87.4564C150.291 86.9232 150.505 86.0703 150.398 85.1106C150.398 85.0396 150.398 84.9329 150.398 84.7908C150.398 84.151 150.398 83.8312 150.185 83.1914C149.972 82.4451 149.225 82.0186 148.479 81.912C148.692 81.912 148.905 81.912 149.225 81.6987C150.291 81.3788 150.718 80.0994 150.398 79.0331C150.398 78.962 150.362 78.891 150.291 78.8199C150.824 78.3934 151.038 77.8603 150.931 77.1139C150.931 76.9007 150.931 76.6874 150.824 76.4742C150.824 76.5453 150.824 76.5453 150.824 76.4742C150.824 76.4742 150.824 76.4386 150.824 76.3676C151.038 75.8344 150.824 75.3013 150.611 74.9815C150.824 74.555 151.038 74.2351 151.144 73.702C151.144 73.4887 151.144 73.2755 151.144 72.9556C151.358 72.5291 151.358 71.996 151.251 71.4629C151.18 71.3207 151.109 71.1786 151.038 71.0364C150.611 69.9702 149.332 69.4371 148.266 69.7569Z" fill="url(#paint19_linear_29_59299)"/>
<path opacity="0.7" d="M145.493 104.196C143.041 105.262 144.534 108.994 146.986 108.035C149.438 107.182 147.946 103.343 145.493 104.196Z" fill="url(#paint20_linear_29_59299)"/>
<path opacity="0.7" d="M146.24 109.101C145.174 108.888 143.894 109.741 143.787 110.913C143.681 111.98 143.254 112.939 143.361 113.899C143.468 114.858 144.107 115.711 145.174 115.818C146.027 116.031 147.093 115.498 147.413 114.645C147.839 113.686 147.946 112.619 148.052 111.66C148.266 110.487 147.519 109.314 146.24 109.101Z" fill="url(#paint21_linear_29_59299)"/>
<path opacity="0.7" d="M144.001 118.377C141.442 119.337 143.041 123.282 145.6 122.322C148.159 121.362 146.666 117.311 144.001 118.377Z" fill="url(#paint22_linear_29_59299)"/>
<path opacity="0.9" d="M142.295 126.8C140.695 127.44 140.695 129.146 141.548 130.212C141.122 130.745 140.909 131.492 141.228 132.238C141.3 132.593 141.442 132.878 141.655 133.091C141.122 134.69 142.508 136.823 144.427 135.97C146.133 135.437 146.133 133.624 145.174 132.558C145.387 131.918 145.387 131.385 145.067 130.745C144.996 130.532 144.854 130.319 144.64 130.106C145.813 128.613 144.427 126.054 142.295 126.8Z" fill="url(#paint23_linear_29_59299)"/>
<path opacity="0.8" d="M142.614 142.047C139.949 143.007 141.548 147.272 144.214 146.206C146.986 145.139 145.386 140.981 142.614 142.047Z" fill="url(#paint24_linear_29_59299)"/>
<path d="M145.173 149.404C144.64 147.912 142.934 147.592 141.655 148.338C141.122 148.658 140.589 149.404 140.482 150.044C140.482 150.471 140.482 151.004 140.589 151.43C140.944 152.07 141.015 152.141 140.802 151.643C140.802 151.75 140.908 151.857 140.908 151.963C141.442 152.923 142.508 153.669 143.681 153.136C144.64 152.816 144.96 152.07 145.067 151.217C145.387 150.684 145.493 150.044 145.173 149.404Z" fill="url(#paint25_linear_29_59299)"/>
</g>
<path style="mix-blend-mode:multiply" d="M174.601 4.93006C172.576 3.86383 171.19 5.14331 170.443 6.74265C170.301 6.88482 170.194 7.06252 170.123 7.27577C169.981 7.63118 169.875 7.98659 169.803 8.342C169.697 9.08836 169.59 9.7281 169.484 10.2612C169.377 13.4599 168.311 15.9122 166.818 18.5778C164.366 23.1626 163.086 28.0673 160.314 32.4388C158.288 35.6375 156.262 38.9428 154.236 42.0349C153.81 42.7812 153.17 43.421 152.637 44.274C148.799 46.9395 144.854 49.072 140.589 51.0978C140.482 51.2045 140.482 51.4177 140.589 51.4177C141.442 51.3111 142.081 51.2045 142.934 51.0978C141.762 52.6972 140.802 54.6164 139.949 56.7489C137.39 63.6794 137.603 71.5695 136.857 78.8198C136.004 88.4159 135.151 98.012 134.405 107.715C132.699 126.587 129.82 145.353 125.448 163.905C123.529 171.795 121.29 179.472 119.797 187.362C118.091 192.48 116.705 197.705 115.426 202.716C114.466 206.234 111.907 213.911 114.573 217.11C114.999 217.643 115.852 217.75 116.492 217.43C116.634 217.43 116.776 217.394 116.918 217.323C117.771 217.323 118.624 216.897 118.944 216.044C120.65 215.191 122.036 213.378 123.103 212.099C126.621 208.154 129.713 203.675 132.592 199.197C134.298 196.638 136.324 193.546 138.03 190.134C138.883 189.068 139.842 187.895 140.589 186.829C149.865 174.141 153.064 155.695 156.795 140.768C159.035 132.131 160.527 123.388 162.766 114.752C165.112 106.009 167.671 97.5855 169.057 88.7358C170.443 79.6728 173.429 67.0913 171.083 56.7489C171.723 57.4952 172.256 58.2416 172.682 59.2012C172.896 59.6277 173.535 59.3078 173.322 58.9879C171.616 54.723 168.204 52.1641 165.325 48.7521C161.38 44.3806 164.899 35.4243 166.605 30.6262C168.844 24.4421 173.748 18.2579 174.601 11.7539C174.957 11.7539 175.241 11.6829 175.455 11.5407C178.973 10.2612 176.841 5.99629 174.601 4.93006Z" fill="url(#paint26_radial_29_59299)"/>
<path style="mix-blend-mode:screen" opacity="0.9" d="M137.07 175.1C140.482 164.758 141.335 155.802 139.203 155.055C136.964 154.309 132.486 162.199 129.18 172.542C125.875 182.991 124.915 191.947 127.048 192.693C129.287 193.333 133.765 185.55 137.07 175.1Z" fill="url(#paint27_radial_29_59299)"/>
<path style="mix-blend-mode:screen" opacity="0.9" d="M123.636 202.822C127.367 194.932 129.18 187.895 127.474 187.042C125.768 186.296 121.397 192.053 117.665 199.944C113.826 207.834 112.227 214.871 113.826 215.617C115.532 216.47 119.904 210.713 123.636 202.822Z" fill="url(#paint28_radial_29_59299)"/>
<path style="mix-blend-mode:screen" opacity="0.9" d="M147.733 145.566C149.332 136.929 148.266 129.572 145.493 129.039C142.615 128.506 139.096 135.01 137.497 143.647C135.897 152.283 136.964 159.64 139.736 160.173C142.508 160.706 146.133 154.096 147.733 145.566Z" fill="url(#paint29_radial_29_59299)"/>
<path style="mix-blend-mode:screen" opacity="0.9" d="M150.078 121.362C150.931 112.619 149.332 105.369 146.453 105.049C143.681 104.729 140.589 111.553 139.736 120.296C138.776 129.039 140.375 136.29 143.254 136.503C146.133 136.929 149.119 130.106 150.078 121.362Z" fill="url(#paint30_radial_29_59299)"/>
<path style="mix-blend-mode:screen" opacity="0.9" d="M153.17 68.2642C153.703 61.9734 152.637 56.7489 150.505 56.5356C148.479 56.3224 146.24 61.227 145.6 67.5178C144.96 73.8086 146.133 79.1397 148.159 79.353C150.291 79.5662 152.424 74.5549 153.17 68.2642Z" fill="url(#paint31_radial_29_59299)"/>
<path style="mix-blend-mode:screen" opacity="0.9" d="M167.564 71.0364C168.311 64.7456 167.138 59.4144 165.005 59.2012C162.98 58.988 160.847 63.9992 160.101 70.29C159.461 76.5808 160.634 81.8053 162.766 82.1252C164.792 82.2318 166.925 77.3271 167.564 71.0364Z" fill="url(#paint32_radial_29_59299)"/>
<path style="mix-blend-mode:screen" opacity="0.9" d="M156.476 128.613C158.715 113.259 158.821 100.678 156.796 100.358C154.663 100.038 151.251 112.193 149.012 127.44C146.88 142.687 146.666 155.375 148.692 155.695C150.825 156.015 154.237 143.86 156.476 128.613Z" fill="url(#paint33_radial_29_59299)"/>
<path style="mix-blend-mode:screen" opacity="0.9" d="M153.17 95.7729C155.409 83.7245 154.023 73.2754 149.972 72.5291C145.813 71.7827 140.802 80.9523 138.563 93.1073C136.324 105.156 137.817 115.498 141.868 116.245C145.813 116.991 150.931 107.821 153.17 95.7729Z" fill="url(#paint34_radial_29_59299)"/>
<path style="mix-blend-mode:screen" opacity="0.9" d="M162.34 62.7198C163.619 56.1091 159.461 49.8184 153.17 48.6455C146.773 47.4727 140.695 51.8442 139.416 58.4548C138.243 65.0655 142.401 71.3562 148.692 72.5291C154.983 73.7019 161.167 69.3304 162.34 62.7198Z" fill="url(#paint35_radial_29_59299)"/>
<path style="mix-blend-mode:screen" opacity="0.9" d="M164.366 89.5888C165.965 81.0589 164.899 73.5953 162.127 73.0622C159.354 72.6357 155.729 79.1397 154.13 87.7762C152.53 96.306 153.49 103.77 156.369 104.303C159.141 104.729 162.766 98.2252 164.366 89.5888Z" fill="url(#paint36_radial_29_59299)"/>
<path style="mix-blend-mode:screen" opacity="0.5" d="M138.883 141.621C143.574 116.138 145.387 95.0265 142.934 94.6C140.482 94.1735 134.724 114.432 129.926 139.915C125.235 165.398 123.422 186.509 125.875 186.936C128.327 187.362 134.191 167.104 138.883 141.621Z" fill="url(#paint37_radial_29_59299)"/>
<g style="mix-blend-mode:screen" opacity="0.4">
<path opacity="0.9" d="M140.909 161.879C140.482 160.6 139.096 160.173 137.923 160.6C137.71 160.6 137.603 160.6 137.497 160.706C136.537 160.92 136.004 161.986 136.004 162.839C135.578 163.479 135.258 164.118 135.471 164.758C135.578 165.398 135.791 165.824 136.217 166.251C136.857 166.677 137.71 166.891 138.35 166.571C138.776 166.357 139.096 166.251 139.416 165.824C139.558 165.682 139.665 165.54 139.736 165.398C139.736 165.291 139.736 165.291 139.842 165.185C139.985 164.971 140.127 164.758 140.269 164.545C141.015 163.905 141.335 162.945 140.909 161.879Z" fill="url(#paint38_linear_29_59299)"/>
<path d="M138.03 169.983C138.03 169.663 137.923 169.343 137.817 169.023C137.39 168.063 136.217 167.53 135.258 167.85C134.405 168.17 133.978 168.916 133.978 169.663C133.872 169.876 133.765 170.196 133.658 170.409C133.232 171.262 133.445 172.115 133.978 172.648C133.125 173.501 133.338 174.887 134.085 175.634C133.232 175.527 132.379 176.06 132.059 176.913C131.846 177.126 131.739 177.553 131.632 177.766C131.632 177.837 131.632 177.873 131.632 177.873C131.206 178.832 131.526 180.005 132.379 180.645C132.095 180.574 131.775 180.574 131.419 180.645C130.033 181.071 129.393 182.564 130.033 183.844C130.566 184.803 131.526 185.443 132.699 185.016C133.338 184.803 133.658 184.27 133.872 183.737C134.191 183.204 134.405 182.564 134.085 181.818C133.978 181.498 133.765 181.178 133.338 180.965C133.658 180.965 133.978 180.965 134.191 180.858C134.725 180.645 135.044 180.325 135.471 180.005C135.684 179.792 135.791 179.472 135.897 179.259C135.684 179.579 135.897 178.939 136.004 178.726C136.324 177.659 136.111 176.7 135.364 176.06C135.578 176.06 135.791 175.953 136.004 175.953C137.284 175.42 137.497 174.034 136.964 173.181C137.603 172.755 138.03 172.115 138.243 171.369C138.243 170.942 138.243 170.302 138.03 169.876C137.959 169.663 137.959 169.698 138.03 169.983Z" fill="url(#paint39_linear_29_59299)"/>
<path opacity="0.9" d="M127.261 187.575C126.088 188.002 125.662 188.962 125.875 190.028C123.316 190.987 124.809 195.039 127.474 193.973C128.54 193.546 128.86 192.587 128.754 191.734C128.825 191.734 128.86 191.734 128.86 191.734C131.632 190.667 129.926 186.509 127.261 187.575Z" fill="url(#paint40_linear_29_59299)"/>
<path opacity="0.8" d="M123.529 203.036C123.742 202.716 123.742 202.289 123.529 201.863C123.209 200.903 122.356 200.583 121.397 200.583C120.65 200.583 120.117 200.903 119.584 201.436C119.051 202.076 119.157 202.929 119.264 203.676C118.838 204.102 118.411 204.635 118.411 205.168C118.198 205.453 117.985 205.772 117.771 206.128C117.629 206.483 117.594 206.803 117.665 207.087C117.558 207.194 117.452 207.301 117.345 207.407C116.918 207.94 116.492 208.367 116.172 209.007C115.639 209.966 116.279 211.246 117.238 211.672C118.198 212.205 119.264 211.672 119.904 210.713C119.904 210.713 119.904 210.677 119.904 210.606C119.975 210.535 120.046 210.464 120.117 210.393C120.544 209.966 120.65 209.433 120.863 208.9C120.863 208.758 120.863 208.616 120.863 208.474C121.183 208.367 121.29 208.047 121.503 207.727C121.93 206.981 122.569 206.128 122.356 205.168C122.356 205.062 122.356 205.062 122.356 205.062C122.996 204.742 123.529 203.889 123.529 203.036Z" fill="url(#paint41_linear_29_59299)"/>
<path opacity="0.9" d="M125.662 195.572C125.235 194.506 124.062 194.079 123.103 194.399C122.463 194.613 122.036 195.146 121.93 195.679C121.788 195.821 121.681 195.963 121.61 196.105C121.183 196.745 121.183 197.491 121.397 198.131C121.717 199.091 122.996 199.73 123.956 199.304C124.098 199.233 124.24 199.162 124.382 199.091C125.128 198.771 125.662 198.131 125.662 197.278C125.875 196.745 125.875 196.212 125.662 195.572Z" fill="url(#paint42_linear_29_59299)"/>
</g>
<g style="mix-blend-mode:screen" opacity="0.2">
<path opacity="0.8" d="M128.327 166.571C125.555 167.637 125.981 171.049 128.007 172.328C127.794 172.328 127.616 172.364 127.474 172.435C124.702 173.501 126.301 177.659 128.967 176.7C130.886 175.953 130.673 173.608 129.5 172.648C129.82 172.648 130.246 172.648 130.566 172.435C134.405 171.049 132.166 165.078 128.327 166.571Z" fill="url(#paint43_linear_29_59299)"/>
<path opacity="0.9" d="M131.739 158.787C129.394 159.747 130.78 163.372 133.125 162.412C135.471 161.559 134.085 157.934 131.739 158.787Z" fill="url(#paint44_linear_29_59299)"/>
<path opacity="0.9" d="M133.125 149.404C131.206 150.151 131.632 152.603 133.125 153.349C133.018 153.349 132.912 153.349 132.912 153.456C130.566 154.309 131.952 157.827 134.191 156.974C136.004 156.335 135.684 154.096 134.298 153.456C134.44 153.456 134.582 153.42 134.724 153.349C137.177 152.39 135.684 148.445 133.125 149.404Z" fill="url(#paint45_linear_29_59299)"/>
<path opacity="0.8" d="M133.445 143.007C130.566 144.18 132.272 148.765 135.151 147.592C138.136 146.419 136.431 141.941 133.445 143.007Z" fill="url(#paint46_linear_29_59299)"/>
<path opacity="0.9" d="M134.085 135.223C131.419 136.29 133.018 140.555 135.791 139.488C138.563 138.422 136.857 134.157 134.085 135.223Z" fill="url(#paint47_linear_29_59299)"/>
</g>
<g style="mix-blend-mode:screen" opacity="0.5">
<path opacity="0.9" d="M163.726 66.1317C161.7 66.8781 162.127 69.6503 163.726 70.29C163.655 70.29 163.584 70.29 163.513 70.29C160.847 71.3563 162.447 75.4079 165.112 74.4483C167.138 73.5953 166.605 70.9298 165.006 70.29C165.112 70.29 165.219 70.29 165.219 70.1834C167.991 69.2238 166.392 65.0655 163.726 66.1317Z" fill="url(#paint48_linear_29_59299)"/>
<path opacity="0.9" d="M159.674 77.0073C157.542 77.8603 157.862 80.5258 159.461 81.3788C159.177 81.3788 158.928 81.4144 158.715 81.4854C157.649 81.9119 157.329 82.8715 157.542 83.9378L157.435 83.8311C157.435 83.9378 157.542 83.9378 157.542 83.9378C157.471 84.0799 157.435 84.2221 157.435 84.3643C157.329 84.6841 157.435 85.004 157.435 85.2172C157.222 85.4305 157.08 85.6793 157.009 85.9636C156.582 86.8166 156.582 87.6696 156.902 88.6292C156.689 88.8424 156.511 89.0557 156.369 89.2689C155.943 90.4418 155.943 91.2948 156.582 92.2544C156.582 92.4676 156.689 92.4676 156.796 92.5742C155.623 93.3206 155.516 94.9199 156.156 96.0928C156.44 96.4482 156.724 96.697 157.009 96.8392C156.902 96.8392 156.902 96.8392 156.796 96.8392C154.45 97.6921 155.836 101.317 158.182 100.464C159.994 99.8246 159.568 97.4789 158.182 96.8392C158.715 96.7325 159.355 96.306 159.674 95.7729C160.207 95.2398 160.421 94.3868 160.101 93.5338C159.959 93.1784 159.781 92.8941 159.568 92.6809C160.101 92.2544 160.421 91.6146 160.314 90.8683C160.421 90.4418 160.421 90.0153 160.314 89.5888C160.954 89.0557 161.061 88.2027 160.847 87.3497C160.847 87.2431 160.847 87.2431 160.741 87.2431C160.812 87.2431 160.847 87.2075 160.847 87.1365C160.954 86.8166 160.954 86.4967 160.847 86.1769C160.954 85.9636 161.167 85.7504 161.274 85.5371C161.807 84.5775 161.7 83.5113 161.167 82.6583C160.954 82.2318 160.741 81.9119 160.314 81.6987C160.67 81.6987 161.025 81.6276 161.38 81.4854C164.366 80.4192 162.553 75.8344 159.674 77.0073Z" fill="url(#paint49_linear_29_59299)"/>
<path opacity="0.9" d="M158.608 102.17C157.542 100.571 154.77 101.637 155.089 103.556C155.196 104.303 155.303 104.943 155.942 105.369C157.115 106.329 158.928 105.689 159.141 104.196C159.354 103.343 159.035 102.81 158.608 102.17Z" fill="url(#paint50_linear_29_59299)"/>
<path opacity="0.9" d="M156.689 105.902C155.943 106.009 155.303 106.222 154.77 106.862C154.13 107.502 153.917 108.568 154.343 109.421C155.09 111.127 157.222 111.02 157.968 109.741C158.395 109.421 158.502 109.314 158.182 109.634C159.888 108.568 158.715 105.476 156.689 105.902Z" fill="url(#paint51_linear_29_59299)"/>
<path d="M154.77 113.046C151.998 114.219 153.703 118.59 156.476 117.524C159.355 116.351 157.649 111.98 154.77 113.046Z" fill="url(#paint52_linear_29_59299)"/>
<path opacity="0.7" d="M153.81 123.602C151.144 124.668 152.744 128.826 155.409 127.76C158.075 126.8 156.476 122.642 153.81 123.602Z" fill="url(#paint53_linear_29_59299)"/>
<path opacity="0.8" d="M151.891 128.293C150.398 128.826 150.505 130.639 151.358 131.492C148.799 132.558 150.291 136.503 152.957 135.543C154.663 134.904 154.556 132.878 153.49 131.918C155.623 130.852 154.236 127.44 151.891 128.293Z" fill="url(#paint54_linear_29_59299)"/>
<path opacity="0.9" d="M149.652 140.021C147.093 140.981 148.585 144.82 151.038 143.86C153.597 142.9 152.104 139.062 149.652 140.021Z" fill="url(#paint55_linear_29_59299)"/>
</g>
<path d="M174.601 4.93006C172.576 3.86383 171.19 5.14331 170.443 6.74265C170.301 6.88482 170.194 7.06252 170.123 7.27577C169.981 7.63118 169.875 7.98659 169.803 8.342C169.697 9.08836 169.59 9.7281 169.484 10.2612C169.377 13.4599 168.311 15.9122 166.818 18.5778C164.366 23.1626 163.086 28.0673 160.314 32.4388C158.288 35.6375 156.262 38.9428 154.236 42.0349C153.81 42.7812 153.17 43.421 152.637 44.274C148.799 46.9395 144.854 49.072 140.589 51.0978C140.482 51.2045 140.482 51.4177 140.589 51.4177C143.361 51.0978 146.24 50.2449 148.905 49.072C150.078 48.9654 151.464 48.7521 151.997 49.6051C152.211 50.1382 152.744 50.1382 153.277 50.0316C154.45 49.8184 156.476 47.7925 157.329 48.9654C157.862 49.4985 158.501 49.4985 159.141 49.1786C160.527 48.4323 164.366 52.5906 165.539 53.2303C165.858 53.3369 166.178 53.3369 166.392 53.2303C168.844 54.8296 171.403 56.3224 172.682 59.2012C172.896 59.6277 173.535 59.3078 173.322 58.9879C171.616 54.723 168.204 52.1641 165.325 48.7521C161.38 44.3806 164.899 35.4243 166.605 30.6262C168.844 24.4421 173.748 18.2579 174.601 11.7539C174.957 11.7539 175.241 11.6829 175.455 11.5407C178.973 10.2612 176.841 5.99629 174.601 4.93006Z" fill="#8E9E00"/>
<path style="mix-blend-mode:screen" opacity="0.9" d="M174.601 4.93006C172.576 3.86383 171.19 5.14331 170.443 6.74265C170.301 6.88482 170.194 7.06252 170.123 7.27577C169.981 7.63118 169.875 7.98659 169.803 8.342C169.697 9.08836 169.59 9.7281 169.484 10.2612C169.377 13.4599 168.311 15.9122 166.818 18.5778C164.366 23.1626 163.086 28.0673 160.314 32.4388C158.288 35.6375 156.262 38.9428 154.236 42.0349C153.81 42.7812 153.17 43.421 152.637 44.274C148.799 46.9395 144.854 49.072 140.589 51.0978C140.482 51.2045 140.482 51.4177 140.589 51.4177C143.361 51.0978 146.24 50.2449 148.905 49.072C150.078 48.9654 151.464 48.7521 151.997 49.6051C152.211 50.1382 152.744 50.1382 153.277 50.0316C154.45 49.8184 156.476 47.7925 157.329 48.9654C157.862 49.4985 158.501 49.4985 159.141 49.1786C160.527 48.4323 164.366 52.5906 165.539 53.2303C165.858 53.3369 166.178 53.3369 166.392 53.2303C168.844 54.8296 171.403 56.3224 172.682 59.2012C172.896 59.6277 173.535 59.3078 173.322 58.9879C171.616 54.723 168.204 52.1641 165.325 48.7521C161.38 44.3806 164.899 35.4243 166.605 30.6262C168.844 24.4421 173.748 18.2579 174.601 11.7539C174.957 11.7539 175.241 11.6829 175.455 11.5407C178.973 10.2612 176.841 5.99629 174.601 4.93006Z" fill="url(#paint56_radial_29_59299)"/>
<path style="mix-blend-mode:screen" opacity="0.9" d="M166.285 30.8395C169.484 22.9494 170.23 15.9122 168.098 15.0593C165.965 14.2063 161.7 19.9639 158.608 27.854C155.516 35.7441 154.663 42.7812 156.796 43.6342C158.928 44.4872 163.193 38.7296 166.285 30.8395Z" fill="url(#paint57_radial_29_59299)"/>
<path style="mix-blend-mode:screen" opacity="0.9" d="M175.881 9.08837C177.48 5.35657 176.841 1.62476 174.815 0.771777C172.682 -0.0812072 169.697 2.37112 168.204 6.10293C166.712 9.83474 167.245 13.5665 169.377 14.4195C171.51 15.2725 174.388 12.9268 175.881 9.08837Z" fill="url(#paint58_radial_29_59299)"/>
</g>
<defs>
<linearGradient id="paint0_linear_29_59299" x1="351.596" y1="646.587" x2="347.97" y2="580.161" gradientUnits="userSpaceOnUse">
<stop stop-color="#B84B5F"/>
<stop offset="1"/>
</linearGradient>
<linearGradient id="paint1_linear_29_59299" x1="324.193" y1="662.048" x2="367.269" y2="577.496" gradientUnits="userSpaceOnUse">
<stop stop-color="white"/>
<stop offset="1"/>
</linearGradient>
<radialGradient id="paint2_radial_29_59299" cx="0" cy="0" r="1" gradientUnits="userSpaceOnUse" gradientTransform="translate(373.56 575.043) scale(23.4571 23.4571)">
<stop stop-color="#821A1A"/>
<stop offset="1" stop-color="white"/>
</radialGradient>
<radialGradient id="paint3_radial_29_59299" cx="0" cy="0" r="1" gradientUnits="userSpaceOnUse" gradientTransform="translate(360.445 560.116) scale(10.5557)">
<stop offset="0.102" stop-color="white"/>
<stop offset="0.27" stop-color="#B9B9B9"/>
<stop offset="0.478" stop-color="#353535"/>
<stop offset="0.54" stop-color="#1E1E1E"/>
<stop offset="0.657" stop-color="#090909"/>
<stop offset="0.836" stop-color="#020202"/>
<stop offset="1"/>
</radialGradient>
<radialGradient id="paint4_radial_29_59299" cx="0" cy="0" r="1" gradientUnits="userSpaceOnUse" gradientTransform="translate(392.965 571.418) scale(7.14373 7.14375)">
<stop offset="0.062" stop-color="#959595"/>
<stop offset="0.226" stop-color="#696869"/>
<stop offset="0.401" stop-color="#3D3D3D"/>
<stop offset="0.438" stop-color="#353535"/>
<stop offset="0.536" stop-color="#1E1E1E"/>
<stop offset="0.657" stop-color="#090909"/>
<stop offset="0.836" stop-color="#020202"/>
<stop offset="1"/>
</radialGradient>
<radialGradient id="paint5_radial_29_59299" cx="0" cy="0" r="1" gradientUnits="userSpaceOnUse" gradientTransform="translate(204.243 243.446) scale(14.0743 14.0742)">
<stop offset="0.131" stop-color="#FFC88A"/>
<stop offset="0.292" stop-color="#A8845B"/>
<stop offset="0.442" stop-color="#6E573C"/>
<stop offset="0.613" stop-color="#382C1F"/>
<stop offset="0.828" stop-color="#100D09"/>
<stop offset="1"/>
</radialGradient>
<linearGradient id="paint6_linear_29_59299" x1="389.447" y1="497.955" x2="388.167" y2="467.248" gradientUnits="userSpaceOnUse">
<stop offset="0.069" stop-color="#638504"/>
<stop offset="1"/>
</linearGradient>
<linearGradient id="paint7_linear_29_59299" x1="538.186" y1="411.057" x2="384.755" y2="485.8" gradientUnits="userSpaceOnUse">
<stop stop-color="white"/>
<stop offset="1"/>
</linearGradient>
<linearGradient id="paint8_linear_29_59299" x1="62.8603" y1="111.766" x2="42.1755" y2="122.002" gradientUnits="userSpaceOnUse">
<stop offset="0.069" stop-color="#638504"/>
<stop offset="1"/>
</linearGradient>
<linearGradient id="paint9_linear_29_59299" x1="-41.8434" y1="35.9575" x2="55.9299" y2="118.697" gradientUnits="userSpaceOnUse">
<stop stop-color="white"/>
<stop offset="1"/>
</linearGradient>
<linearGradient id="paint10_linear_29_59299" x1="206.481" y1="666.313" x2="186.65" y2="624.304" gradientUnits="userSpaceOnUse">
<stop stop-color="#BDCA7B"/>
<stop offset="1" stop-color="#9DB959"/>
</linearGradient>
<linearGradient id="paint11_linear_29_59299" x1="226.74" y1="673.777" x2="212.346" y2="643.283" gradientUnits="userSpaceOnUse">
<stop stop-color="#BDCA7B"/>
<stop offset="1" stop-color="#9DB959"/>
</linearGradient>
<linearGradient id="paint12_linear_29_59299" x1="256.488" y1="670.791" x2="243.48" y2="643.389" gradientUnits="userSpaceOnUse">
<stop stop-color="#BDCA7B"/>
<stop offset="1" stop-color="#9DB959"/>
</linearGradient>
<linearGradient id="paint13_linear_29_59299" x1="253.396" y1="642.643" x2="243.587" y2="621.745" gradientUnits="userSpaceOnUse">
<stop stop-color="#BDCA7B"/>
<stop offset="1" stop-color="#9DB959"/>
</linearGradient>
<linearGradient id="paint14_linear_29_59299" x1="245.932" y1="624.623" x2="236.763" y2="605.431" gradientUnits="userSpaceOnUse">
<stop stop-color="#BDCA7B"/>
<stop offset="1" stop-color="#9DB959"/>
</linearGradient>
<linearGradient id="paint15_linear_29_59299" x1="235.376" y1="601.38" x2="231.005" y2="592.21" gradientUnits="userSpaceOnUse">
<stop stop-color="#BDCA7B"/>
<stop offset="1" stop-color="#9DB959"/>
</linearGradient>
<linearGradient id="paint16_linear_29_59299" x1="218.104" y1="614.921" x2="209.894" y2="597.648" gradientUnits="userSpaceOnUse">
<stop stop-color="#BDCA7B"/>
<stop offset="1" stop-color="#9DB959"/>
</linearGradient>
<linearGradient id="paint17_linear_29_59299" x1="146.879" y1="54.9363" x2="153.703" y2="54.0833" gradientUnits="userSpaceOnUse">
<stop offset="0.182" stop-color="#FFD9AD"/>
<stop offset="1"/>
</linearGradient>
<linearGradient id="paint18_linear_29_59299" x1="147.306" y1="64.3192" x2="151.358" y2="63.786" gradientUnits="userSpaceOnUse">
<stop offset="0.182" stop-color="#FFD9AD"/>
<stop offset="1"/>
</linearGradient>
<linearGradient id="paint19_linear_29_59299" x1="141.548" y1="70.6099" x2="150.931" y2="69.4371" gradientUnits="userSpaceOnUse">
<stop offset="0.182" stop-color="#FFD9AD"/>
<stop offset="1"/>
</linearGradient>
<linearGradient id="paint20_linear_29_59299" x1="144.001" y1="104.409" x2="147.946" y2="103.876" gradientUnits="userSpaceOnUse">
<stop offset="0.182" stop-color="#FFD9AD"/>
<stop offset="1"/>
</linearGradient>
<linearGradient id="paint21_linear_29_59299" x1="142.828" y1="109.421" x2="147.839" y2="108.781" gradientUnits="userSpaceOnUse">
<stop offset="0.182" stop-color="#FFD9AD"/>
<stop offset="1"/>
</linearGradient>
<linearGradient id="paint22_linear_29_59299" x1="142.508" y1="118.484" x2="146.666" y2="117.951" gradientUnits="userSpaceOnUse">
<stop offset="0.182" stop-color="#FFD9AD"/>
<stop offset="1"/>
</linearGradient>
<linearGradient id="paint23_linear_29_59299" x1="140.482" y1="127.014" x2="144.854" y2="126.48" gradientUnits="userSpaceOnUse">
<stop offset="0.182" stop-color="#FFD9AD"/>
<stop offset="1"/>
</linearGradient>
<linearGradient id="paint24_linear_29_59299" x1="141.015" y1="142.154" x2="145.28" y2="141.621" gradientUnits="userSpaceOnUse">
<stop offset="0.182" stop-color="#FFD9AD"/>
<stop offset="1"/>
</linearGradient>
<linearGradient id="paint25_linear_29_59299" x1="140.162" y1="148.232" x2="145.067" y2="147.698" gradientUnits="userSpaceOnUse">
<stop offset="0.182" stop-color="#FFD9AD"/>
<stop offset="1"/>
</linearGradient>
<radialGradient id="paint26_radial_29_59299" cx="0" cy="0" r="1" gradientUnits="userSpaceOnUse" gradientTransform="translate(145.387 111.02) scale(20.6849 20.6849)">
<stop stop-color="#380011"/>
<stop offset="0.964" stop-color="white"/>
</radialGradient>
<radialGradient id="paint27_radial_29_59299" cx="0" cy="0" r="1" gradientUnits="userSpaceOnUse" gradientTransform="translate(133.125 173.821) scale(4.15831 4.1583)">
<stop stop-color="#FFB08F"/>
<stop offset="0.933"/>
</radialGradient>
<radialGradient id="paint28_radial_29_59299" cx="0" cy="0" r="1" gradientUnits="userSpaceOnUse" gradientTransform="translate(120.65 201.33) scale(3.30532 3.30531)">
<stop stop-color="#FFB08F"/>
<stop offset="0.933"/>
</radialGradient>
<radialGradient id="paint29_radial_29_59299" cx="0" cy="0" r="1" gradientUnits="userSpaceOnUse" gradientTransform="translate(142.615 144.606) scale(5.22454 5.22453)">
<stop stop-color="#FFB08F"/>
<stop offset="0.933"/>
</radialGradient>
<radialGradient id="paint30_radial_29_59299" cx="0" cy="0" r="1" gradientUnits="userSpaceOnUse" gradientTransform="translate(144.854 120.829) scale(5.22451 5.22453)">
<stop stop-color="#FFB08F"/>
<stop offset="0.933"/>
</radialGradient>
<radialGradient id="paint31_radial_29_59299" cx="0" cy="0" r="1" gradientUnits="userSpaceOnUse" gradientTransform="translate(149.332 67.9443) scale(3.7318 3.73181)">
<stop stop-color="#FFB08F"/>
<stop offset="0.933"/>
</radialGradient>
<radialGradient id="paint32_radial_29_59299" cx="0" cy="0" r="1" gradientUnits="userSpaceOnUse" gradientTransform="translate(163.833 70.6099) scale(3.73181 3.73181)">
<stop stop-color="#FFB08F"/>
<stop offset="0.933"/>
</radialGradient>
<radialGradient id="paint33_radial_29_59299" cx="0" cy="0" r="1" gradientUnits="userSpaceOnUse" gradientTransform="translate(152.744 127.973) scale(3.73181 3.73181)">
<stop stop-color="#FFB08F"/>
<stop offset="0.933"/>
</radialGradient>
<radialGradient id="paint34_radial_29_59299" cx="0" cy="0" r="1" gradientUnits="userSpaceOnUse" gradientTransform="translate(145.92 94.3868) scale(7.35699 7.35699)">
<stop stop-color="#FFB08F"/>
<stop offset="0.933"/>
</radialGradient>
<radialGradient id="paint35_radial_29_59299" cx="0" cy="0" r="1" gradientUnits="userSpaceOnUse" gradientTransform="translate(150.931 60.5873) scale(11.6219)">
<stop stop-color="#FFB08F"/>
<stop offset="0.933"/>
</radialGradient>
<radialGradient id="paint36_radial_29_59299" cx="0" cy="0" r="1" gradientUnits="userSpaceOnUse" gradientTransform="translate(159.248 88.6292) scale(5.22452 5.22453)">
<stop stop-color="#FFB08F"/>
<stop offset="0.933"/>
</radialGradient>
<radialGradient id="paint37_radial_29_59299" cx="0" cy="0" r="1" gradientUnits="userSpaceOnUse" gradientTransform="translate(134.405 140.768) scale(4.58479 4.58479)">
<stop stop-color="#FFB08F"/>
<stop offset="0.933"/>
</radialGradient>
<linearGradient id="paint38_linear_29_59299" x1="134.938" y1="160.92" x2="140.802" y2="160.173" gradientUnits="userSpaceOnUse">
<stop offset="0.182" stop-color="#FFD9AD"/>
<stop offset="1"/>
</linearGradient>
<linearGradient id="paint39_linear_29_59299" x1="128.007" y1="168.81" x2="137.817" y2="167.53" gradientUnits="userSpaceOnUse">
<stop offset="0.182" stop-color="#FFD9AD"/>
<stop offset="1"/>
</linearGradient>
<linearGradient id="paint40_linear_29_59299" x1="124.062" y1="187.895" x2="129.926" y2="187.149" gradientUnits="userSpaceOnUse">
<stop offset="0.182" stop-color="#FFD9AD"/>
<stop offset="1"/>
</linearGradient>
<linearGradient id="paint41_linear_29_59299" x1="114.893" y1="201.33" x2="123.422" y2="200.264" gradientUnits="userSpaceOnUse">
<stop offset="0.182" stop-color="#FFD9AD"/>
<stop offset="1"/>
</linearGradient>
<linearGradient id="paint42_linear_29_59299" x1="120.864" y1="194.613" x2="125.555" y2="194.079" gradientUnits="userSpaceOnUse">
<stop offset="0.182" stop-color="#FFD9AD"/>
<stop offset="1"/>
</linearGradient>
<linearGradient id="paint43_linear_29_59299" x1="125.022" y1="166.891" x2="132.165" y2="165.931" gradientUnits="userSpaceOnUse">
<stop offset="0.182" stop-color="#FFD9AD"/>
<stop offset="1"/>
</linearGradient>
<linearGradient id="paint44_linear_29_59299" x1="130.353" y1="158.894" x2="134.085" y2="158.467" gradientUnits="userSpaceOnUse">
<stop offset="0.182" stop-color="#FFD9AD"/>
<stop offset="1"/>
</linearGradient>
<linearGradient id="paint45_linear_29_59299" x1="130.993" y1="149.617" x2="135.684" y2="149.084" gradientUnits="userSpaceOnUse">
<stop offset="0.182" stop-color="#FFD9AD"/>
<stop offset="1"/>
</linearGradient>
<linearGradient id="paint46_linear_29_59299" x1="131.632" y1="143.22" x2="136.324" y2="142.58" gradientUnits="userSpaceOnUse">
<stop offset="0.182" stop-color="#FFD9AD"/>
<stop offset="1"/>
</linearGradient>
<linearGradient id="paint47_linear_29_59299" x1="132.485" y1="135.33" x2="136.857" y2="134.797" gradientUnits="userSpaceOnUse">
<stop offset="0.182" stop-color="#FFD9AD"/>
<stop offset="1"/>
</linearGradient>
<linearGradient id="paint48_linear_29_59299" x1="161.38" y1="66.345" x2="166.392" y2="65.7052" gradientUnits="userSpaceOnUse">
<stop offset="0.182" stop-color="#FFD9AD"/>
<stop offset="1"/>
</linearGradient>
<linearGradient id="paint49_linear_29_59299" x1="152.957" y1="77.7536" x2="162.553" y2="76.5808" gradientUnits="userSpaceOnUse">
<stop offset="0.182" stop-color="#FFD9AD"/>
<stop offset="1"/>
</linearGradient>
<linearGradient id="paint50_linear_29_59299" x1="154.77" y1="101.744" x2="158.928" y2="101.211" gradientUnits="userSpaceOnUse">
<stop offset="0.182" stop-color="#FFD9AD"/>
<stop offset="1"/>
</linearGradient>
<linearGradient id="paint51_linear_29_59299" x1="153.81" y1="106.222" x2="158.715" y2="105.582" gradientUnits="userSpaceOnUse">
<stop offset="0.182" stop-color="#FFD9AD"/>
<stop offset="1"/>
</linearGradient>
<linearGradient id="paint52_linear_29_59299" x1="153.064" y1="113.259" x2="157.649" y2="112.619" gradientUnits="userSpaceOnUse">
<stop offset="0.182" stop-color="#FFD9AD"/>
<stop offset="1"/>
</linearGradient>
<linearGradient id="paint53_linear_29_59299" x1="152.211" y1="123.815" x2="156.476" y2="123.282" gradientUnits="userSpaceOnUse">
<stop offset="0.182" stop-color="#FFD9AD"/>
<stop offset="1"/>
</linearGradient>
<linearGradient id="paint54_linear_29_59299" x1="149.438" y1="128.613" x2="154.236" y2="127.973" gradientUnits="userSpaceOnUse">
<stop offset="0.182" stop-color="#FFD9AD"/>
<stop offset="1"/>
</linearGradient>
<linearGradient id="paint55_linear_29_59299" x1="148.052" y1="140.128" x2="152.104" y2="139.595" gradientUnits="userSpaceOnUse">
<stop offset="0.182" stop-color="#FFD9AD"/>
<stop offset="1"/>
</linearGradient>
<radialGradient id="paint56_radial_29_59299" cx="0" cy="0" r="1" gradientUnits="userSpaceOnUse" gradientTransform="translate(158.928 31.9057) scale(17.9127 17.9127)">
<stop stop-color="#D1BC00"/>
<stop offset="0.933"/>
</radialGradient>
<radialGradient id="paint57_radial_29_59299" cx="0" cy="0" r="1" gradientUnits="userSpaceOnUse" gradientTransform="translate(162.447 29.3467) scale(4.1583 4.1583)">
<stop stop-color="#DBFF4D"/>
<stop offset="0.933"/>
</radialGradient>
<radialGradient id="paint58_radial_29_59299" cx="0" cy="0" r="1" gradientUnits="userSpaceOnUse" gradientTransform="translate(172.043 7.59565) scale(4.1583)">
<stop stop-color="#DBFF4D"/>
<stop offset="0.933"/>
</radialGradient>
</defs>
</svg>
