<svg xmlns="http://www.w3.org/2000/svg" viewBox="0 0 48 48" id="air-cooler"><g data-name="Air cooler"><path fill="#3f3f44" d="M26 32v4a2 2 0 0 1-4 0v-4a2 2 0 0 1 4 0zM13 10v14h22V10zm19 12H16a1 1 0 0 1 0-2h16a1 1 0 0 1 0 2zm0-4H16a1 1 0 0 1 0-2h16a1 1 0 0 1 0 2zm0-4H16a1 1 0 0 1 0-2h16a1 1 0 0 1 0 2z"></path><path fill="#3f3f44" d="M13 10v14h22V10Zm19 12H16a1 1 0 0 1 0-2h16a1 1 0 0 1 0 2Zm0-4H16a1 1 0 0 1 0-2h16a1 1 0 0 1 0 2Zm0-4H16a1 1 0 0 1 0-2h16a1 1 0 0 1 0 2Z"></path><path fill="#3f3f44" d="M13 10v14h22V10Zm19 12H16a1 1 0 0 1 0-2h16a1 1 0 0 1 0 2Zm0-4H16a1 1 0 0 1 0-2h16a1 1 0 0 1 0 2Zm0-4H16a1 1 0 0 1 0-2h16a1 1 0 0 1 0 2Z"></path><path fill="#3f3f44" d="M13 10v14h22V10Zm19 12H16a1 1 0 0 1 0-2h16a1 1 0 0 1 0 2Zm0-4H16a1 1 0 0 1 0-2h16a1 1 0 0 1 0 2Zm0-4H16a1 1 0 0 1 0-2h16a1 1 0 0 1 0 2Z"></path><path fill="#0075f6" d="M13 10v14h22V10Zm19 12H16a1 1 0 0 1 0-2h16a1 1 0 0 1 0 2Zm0-4H16a1 1 0 0 1 0-2h16a1 1 0 0 1 0 2Zm0-4H16a1 1 0 0 1 0-2h16a1 1 0 0 1 0 2Zm-19-4v14h22V10Zm19 12H16a1 1 0 0 1 0-2h16a1 1 0 0 1 0 2Zm0-4H16a1 1 0 0 1 0-2h16a1 1 0 0 1 0 2Zm0-4H16a1 1 0 0 1 0-2h16a1 1 0 0 1 0 2Zm-19-4v14h22V10Zm19 12H16a1 1 0 0 1 0-2h16a1 1 0 0 1 0 2Zm0-4H16a1 1 0 0 1 0-2h16a1 1 0 0 1 0 2Zm0-4H16a1 1 0 0 1 0-2h16a1 1 0 0 1 0 2Zm-19-4v14h22V10Zm19 12H16a1 1 0 0 1 0-2h16a1 1 0 0 1 0 2Zm0-4H16a1 1 0 0 1 0-2h16a1 1 0 0 1 0 2Zm0-4H16a1 1 0 0 1 0-2h16a1 1 0 0 1 0 2ZM8 5v36a2 2 0 0 0 2 2h28a2 2 0 0 0 2-2V5Zm20 31a4 4 0 0 1-8 0v-4a4 4 0 0 1 8 0Zm9-11a1 1 0 0 1-1 1H12a1 1 0 0 1-1-1V9a1 1 0 0 1 1-1h24a1 1 0 0 1 1 1Zm-24-1h22V10H13Zm3-12h16a1 1 0 0 1 0 2H16a1 1 0 0 1 0-2Zm0 4h16a1 1 0 0 1 0 2H16a1 1 0 0 1 0-2Zm0 4h16a1 1 0 0 1 0 2H16a1 1 0 0 1 0-2Zm-3-10v14h22V10Zm19 12H16a1 1 0 0 1 0-2h16a1 1 0 0 1 0 2Zm0-4H16a1 1 0 0 1 0-2h16a1 1 0 0 1 0 2Zm0-4H16a1 1 0 0 1 0-2h16a1 1 0 0 1 0 2Zm-19-4v14h22V10Zm19 12H16a1 1 0 0 1 0-2h16a1 1 0 0 1 0 2Zm0-4H16a1 1 0 0 1 0-2h16a1 1 0 0 1 0 2Zm0-4H16a1 1 0 0 1 0-2h16a1 1 0 0 1 0 2Z"></path><path fill="#0075f6" d="M13 10v14h22V10Zm19 12H16a1 1 0 0 1 0-2h16a1 1 0 0 1 0 2Zm0-4H16a1 1 0 0 1 0-2h16a1 1 0 0 1 0 2Zm0-4H16a1 1 0 0 1 0-2h16a1 1 0 0 1 0 2Z"></path><path fill="#3f3f44" d="M13 10v14h22V10Zm19 12H16a1 1 0 0 1 0-2h16a1 1 0 0 1 0 2Zm0-4H16a1 1 0 0 1 0-2h16a1 1 0 0 1 0 2Zm0-4H16a1 1 0 0 1 0-2h16a1 1 0 0 1 0 2Z"></path><path fill="#3f3f44" d="M13 10v14h22V10Zm19 12H16a1 1 0 0 1 0-2h16a1 1 0 0 1 0 2Zm0-4H16a1 1 0 0 1 0-2h16a1 1 0 0 1 0 2Zm0-4H16a1 1 0 0 1 0-2h16a1 1 0 0 1 0 2Z"></path><path fill="#3f3f44" d="M13 10v14h22V10zm19 12H16a1 1 0 0 1 0-2h16a1 1 0 0 1 0 2zm0-4H16a1 1 0 0 1 0-2h16a1 1 0 0 1 0 2zm0-4H16a1 1 0 0 1 0-2h16a1 1 0 0 1 0 2zM15 45v1a1 1 0 0 1-1 1h-2a1 1 0 0 1-1-1v-1zm22 0v1a1 1 0 0 1-1 1h-2a1 1 0 0 1-1-1v-1zm3-42H8a2 2 0 0 1 2-2h28a2 2 0 0 1 2 2z"></path></g></svg>